solid PARTassembly
   facet normal -1.0000 0.0000 0.0000
      outer loop
         vertex 0.0000 13.2229 13.2229
         vertex 0.0000 16.1947 9.3500
         vertex 0.0000 13.2229 -13.2229
      endloop
   endfacet
   facet normal -1.0000 0.0000 0.0000
      outer loop
         vertex 0.0000 13.2229 -13.2229
         vertex 0.0000 16.1947 9.3500
         vertex 0.0000 15.9721 -0.0000
      endloop
   endfacet
   facet normal -1.0000 0.0000 0.0000
      outer loop
         vertex 0.0000 13.2229 -13.2229
         vertex 0.0000 15.9721 -0.0000
         vertex 0.0000 16.1947 -9.3500
      endloop
   endfacet
   facet normal -1.0000 0.0000 0.0000
      outer loop
         vertex 0.0000 16.1947 -9.3500
         vertex 0.0000 15.9721 -0.0000
         vertex 0.0000 16.3054 -1.2440
      endloop
   endfacet
   facet normal -1.0000 0.0000 0.0000
      outer loop
         vertex 0.0000 16.1947 -9.3500
         vertex 0.0000 16.3054 -1.2440
         vertex 0.0000 18.0628 -4.8399
      endloop
   endfacet
   facet normal -1.0000 0.0000 0.0000
      outer loop
         vertex 0.0000 18.0628 -4.8399
         vertex 0.0000 16.3054 -1.2440
         vertex 0.0000 17.2160 -2.1546
      endloop
   endfacet
   facet normal -1.0000 0.0000 0.0000
      outer loop
         vertex 0.0000 18.0628 -4.8399
         vertex 0.0000 17.2160 -2.1546
         vertex 0.0000 18.3754 -2.4653
      endloop
   endfacet
   facet normal -1.0000 0.0000 0.0000
      outer loop
         vertex 0.0000 15.9721 -0.0000
         vertex 0.0000 16.1947 9.3500
         vertex 0.0000 16.3054 1.2440
      endloop
   endfacet
   facet normal -1.0000 0.0000 0.0000
      outer loop
         vertex 0.0000 16.3054 1.2440
         vertex 0.0000 16.1947 9.3500
         vertex 0.0000 18.0628 4.8399
      endloop
   endfacet
   facet normal -1.0000 0.0000 0.0000
      outer loop
         vertex 0.0000 16.3054 1.2440
         vertex 0.0000 18.0628 4.8399
         vertex 0.0000 17.2160 2.1546
      endloop
   endfacet
   facet normal -1.0000 0.0000 0.0000
      outer loop
         vertex 0.0000 17.2160 2.1546
         vertex 0.0000 18.0628 4.8399
         vertex 0.0000 18.3754 2.4653
      endloop
   endfacet
   facet normal -1.0000 0.0000 0.0000
      outer loop
         vertex 0.0000 13.2229 13.2229
         vertex 0.0000 13.2229 -13.2229
         vertex 0.0000 11.0000 -0.5000
      endloop
   endfacet
   facet normal -1.0000 0.0000 0.0000
      outer loop
         vertex 0.0000 13.2229 13.2229
         vertex 0.0000 11.0000 -0.5000
         vertex 0.0000 11.0000 0.5000
      endloop
   endfacet
   facet normal -1.0000 0.0000 0.0000
      outer loop
         vertex 0.0000 13.2229 13.2229
         vertex 0.0000 11.0000 0.5000
         vertex 0.0000 9.9342 0.5000
      endloop
   endfacet
   facet normal -1.0000 0.0000 0.0000
      outer loop
         vertex 0.0000 13.2229 13.2229
         vertex 0.0000 9.9342 0.5000
         vertex 0.0000 9.6593 2.5882
      endloop
   endfacet
   facet normal -1.0000 0.0000 0.0000
      outer loop
         vertex 0.0000 13.2229 13.2229
         vertex 0.0000 9.6593 2.5882
         vertex 0.0000 9.5350 8.3871
      endloop
   endfacet
   facet normal -1.0000 0.0000 0.0000
      outer loop
         vertex 0.0000 13.2229 13.2229
         vertex 0.0000 9.5350 8.3871
         vertex 0.0000 9.3500 16.1947
      endloop
   endfacet
   facet normal -1.0000 0.0000 0.0000
      outer loop
         vertex 0.0000 7.0711 -7.0711
         vertex 0.0000 8.6603 -5.0000
         vertex 0.0000 9.3500 -16.1947
      endloop
   endfacet
   facet normal -1.0000 0.0000 0.0000
      outer loop
         vertex 0.0000 9.3500 -16.1947
         vertex 0.0000 8.6603 -5.0000
         vertex 0.0000 9.6593 -2.5882
      endloop
   endfacet
   facet normal -1.0000 0.0000 0.0000
      outer loop
         vertex 0.0000 9.3500 -16.1947
         vertex 0.0000 9.6593 -2.5882
         vertex 0.0000 13.2229 -13.2229
      endloop
   endfacet
   facet normal -1.0000 0.0000 0.0000
      outer loop
         vertex 0.0000 13.2229 -13.2229
         vertex 0.0000 9.6593 -2.5882
         vertex 0.0000 9.9342 -0.5000
      endloop
   endfacet
   facet normal -1.0000 0.0000 0.0000
      outer loop
         vertex 0.0000 13.2229 -13.2229
         vertex 0.0000 9.9342 -0.5000
         vertex 0.0000 11.0000 -0.5000
      endloop
   endfacet
   facet normal -1.0000 0.0000 0.0000
      outer loop
         vertex 0.0000 7.0711 -7.0711
         vertex 0.0000 9.3500 -16.1947
         vertex 0.0000 5.0000 -8.6603
      endloop
   endfacet
   facet normal -1.0000 0.0000 0.0000
      outer loop
         vertex 0.0000 5.0000 -8.6603
         vertex 0.0000 9.3500 -16.1947
         vertex 0.0000 4.8399 -18.0628
      endloop
   endfacet
   facet normal -1.0000 0.0000 0.0000
      outer loop
         vertex 0.0000 5.0000 -8.6603
         vertex 0.0000 4.8399 -18.0628
         vertex 0.0000 2.5882 -9.6593
      endloop
   endfacet
   facet normal -1.0000 0.0000 0.0000
      outer loop
         vertex 0.0000 2.5882 -9.6593
         vertex 0.0000 4.8399 -18.0628
         vertex 0.0000 1.6444 -18.4835
      endloop
   endfacet
   facet normal -1.0000 0.0000 0.0000
      outer loop
         vertex 0.0000 2.5882 -9.6593
         vertex 0.0000 1.6444 -18.4835
         vertex 0.0000 1.3819 -16.9951
      endloop
   endfacet
   facet normal -1.0000 0.0000 0.0000
      outer loop
         vertex 0.0000 -3.0035 -15.3989
         vertex 0.0000 -2.5882 -9.6593
         vertex 0.0000 -1.3213 -15.1023
      endloop
   endfacet
   facet normal -1.0000 0.0000 0.0000
      outer loop
         vertex 0.0000 -1.3213 -15.1023
         vertex 0.0000 -2.5882 -9.6593
         vertex 0.0000 0.0000 -10.0000
      endloop
   endfacet
   facet normal -1.0000 0.0000 0.0000
      outer loop
         vertex 0.0000 -1.3213 -15.1023
         vertex 0.0000 0.0000 -10.0000
         vertex 0.0000 0.2839 -15.6866
      endloop
   endfacet
   facet normal -1.0000 0.0000 0.0000
      outer loop
         vertex 0.0000 0.2839 -15.6866
         vertex 0.0000 0.0000 -10.0000
         vertex 0.0000 2.5882 -9.6593
      endloop
   endfacet
   facet normal -1.0000 0.0000 0.0000
      outer loop
         vertex 0.0000 0.2839 -15.6866
         vertex 0.0000 2.5882 -9.6593
         vertex 0.0000 1.3819 -16.9951
      endloop
   endfacet
   facet normal -1.0000 0.0000 0.0000
      outer loop
         vertex 0.0000 -7.0711 -7.0711
         vertex 0.0000 -5.0000 -8.6603
         vertex 0.0000 -4.8765 -18.0477
      endloop
   endfacet
   facet normal -1.0000 0.0000 0.0000
      outer loop
         vertex 0.0000 -4.8765 -18.0477
         vertex 0.0000 -5.0000 -8.6603
         vertex 0.0000 -2.5882 -9.6593
      endloop
   endfacet
   facet normal -1.0000 0.0000 0.0000
      outer loop
         vertex 0.0000 -4.8765 -18.0477
         vertex 0.0000 -2.5882 -9.6593
         vertex 0.0000 -4.3121 -16.4970
      endloop
   endfacet
   facet normal -1.0000 0.0000 0.0000
      outer loop
         vertex 0.0000 -4.3121 -16.4970
         vertex 0.0000 -2.5882 -9.6593
         vertex 0.0000 -3.0035 -15.3989
      endloop
   endfacet
   facet normal -1.0000 0.0000 0.0000
      outer loop
         vertex 0.0000 -9.9342 -0.5000
         vertex 0.0000 -9.6593 -2.5882
         vertex 0.0000 -9.3500 -16.1947
      endloop
   endfacet
   facet normal -1.0000 0.0000 0.0000
      outer loop
         vertex 0.0000 -9.3500 -16.1947
         vertex 0.0000 -9.6593 -2.5882
         vertex 0.0000 -8.6603 -5.0000
      endloop
   endfacet
   facet normal -1.0000 0.0000 0.0000
      outer loop
         vertex 0.0000 -9.3500 -16.1947
         vertex 0.0000 -8.6603 -5.0000
         vertex 0.0000 -4.8765 -18.0477
      endloop
   endfacet
   facet normal -1.0000 0.0000 0.0000
      outer loop
         vertex 0.0000 -4.8765 -18.0477
         vertex 0.0000 -8.6603 -5.0000
         vertex 0.0000 -7.0711 -7.0711
      endloop
   endfacet
   facet normal -1.0000 0.0000 0.0000
      outer loop
         vertex 0.0000 -9.9342 -0.5000
         vertex 0.0000 -9.3500 -16.1947
         vertex 0.0000 -13.2229 -13.2229
      endloop
   endfacet
   facet normal -1.0000 0.0000 0.0000
      outer loop
         vertex 0.0000 -9.9342 -0.5000
         vertex 0.0000 -13.2229 -13.2229
         vertex 0.0000 -16.1947 -9.3500
      endloop
   endfacet
   facet normal -1.0000 0.0000 0.0000
      outer loop
         vertex 0.0000 -9.9342 -0.5000
         vertex 0.0000 -16.1947 -9.3500
         vertex 0.0000 -18.0628 -4.8399
      endloop
   endfacet
   facet normal -1.0000 0.0000 0.0000
      outer loop
         vertex 0.0000 -9.9342 -0.5000
         vertex 0.0000 -18.0628 -4.8399
         vertex 0.0000 -18.6342 -0.5000
      endloop
   endfacet
   facet normal -1.0000 0.0000 0.0000
      outer loop
         vertex 0.0000 8.6603 5.0000
         vertex 0.0000 7.9290 6.0935
         vertex 0.0000 9.5350 8.3871
      endloop
   endfacet
   facet normal -1.0000 0.0000 0.0000
      outer loop
         vertex 0.0000 8.6603 5.0000
         vertex 0.0000 9.5350 8.3871
         vertex 0.0000 9.6593 2.5882
      endloop
   endfacet
   facet normal -1.0000 0.0000 0.0000
      outer loop
         vertex 0.0000 4.8399 18.0628
         vertex 0.0000 9.3500 16.1947
         vertex 0.0000 9.5350 8.3871
      endloop
   endfacet
   facet normal -1.0000 0.0000 0.0000
      outer loop
         vertex 0.0000 4.8399 18.0628
         vertex 0.0000 9.5350 8.3871
         vertex 0.0000 4.6201 11.8286
      endloop
   endfacet
   facet normal -1.0000 0.0000 0.0000
      outer loop
         vertex 0.0000 4.8399 18.0628
         vertex 0.0000 4.6201 11.8286
         vertex 0.0000 3.0141 9.5349
      endloop
   endfacet
   facet normal -1.0000 0.0000 0.0000
      outer loop
         vertex 0.0000 4.8399 18.0628
         vertex 0.0000 3.0141 9.5349
         vertex 0.0000 2.5882 9.6593
      endloop
   endfacet
   facet normal -1.0000 0.0000 0.0000
      outer loop
         vertex 0.0000 4.8399 18.0628
         vertex 0.0000 2.5882 9.6593
         vertex 0.0000 1.6444 18.4835
      endloop
   endfacet
   facet normal -1.0000 0.0000 0.0000
      outer loop
         vertex 0.0000 -4.3121 16.4970
         vertex 0.0000 -3.0035 15.3989
         vertex 0.0000 -2.5882 9.6593
      endloop
   endfacet
   facet normal -1.0000 0.0000 0.0000
      outer loop
         vertex 0.0000 -2.5882 9.6593
         vertex 0.0000 -3.0035 15.3989
         vertex 0.0000 -1.3213 15.1023
      endloop
   endfacet
   facet normal -1.0000 0.0000 0.0000
      outer loop
         vertex 0.0000 -2.5882 9.6593
         vertex 0.0000 -1.3213 15.1023
         vertex 0.0000 0.0000 10.0000
      endloop
   endfacet
   facet normal -1.0000 0.0000 0.0000
      outer loop
         vertex 0.0000 0.0000 10.0000
         vertex 0.0000 -1.3213 15.1023
         vertex 0.0000 0.2839 15.6866
      endloop
   endfacet
   facet normal -1.0000 0.0000 0.0000
      outer loop
         vertex 0.0000 0.0000 10.0000
         vertex 0.0000 0.2839 15.6866
         vertex 0.0000 2.5882 9.6593
      endloop
   endfacet
   facet normal -1.0000 0.0000 0.0000
      outer loop
         vertex 0.0000 2.5882 9.6593
         vertex 0.0000 0.2839 15.6866
         vertex 0.0000 1.3819 16.9951
      endloop
   endfacet
   facet normal -1.0000 0.0000 0.0000
      outer loop
         vertex 0.0000 2.5882 9.6593
         vertex 0.0000 1.3819 16.9951
         vertex 0.0000 1.6444 18.4835
      endloop
   endfacet
   facet normal -1.0000 0.0000 0.0000
      outer loop
         vertex 0.0000 -4.8765 18.0477
         vertex 0.0000 -4.3121 16.4970
         vertex 0.0000 -2.5882 9.6593
      endloop
   endfacet
   facet normal -1.0000 0.0000 0.0000
      outer loop
         vertex 0.0000 -4.8765 18.0477
         vertex 0.0000 -2.5882 9.6593
         vertex 0.0000 -5.0000 8.6603
      endloop
   endfacet
   facet normal -1.0000 0.0000 0.0000
      outer loop
         vertex 0.0000 -4.8765 18.0477
         vertex 0.0000 -5.0000 8.6603
         vertex 0.0000 -7.0711 7.0711
      endloop
   endfacet
   facet normal -1.0000 0.0000 0.0000
      outer loop
         vertex 0.0000 -4.8765 18.0477
         vertex 0.0000 -7.0711 7.0711
         vertex 0.0000 -8.6603 5.0000
      endloop
   endfacet
   facet normal -1.0000 0.0000 0.0000
      outer loop
         vertex 0.0000 -4.8765 18.0477
         vertex 0.0000 -8.6603 5.0000
         vertex 0.0000 -9.3500 16.1947
      endloop
   endfacet
   facet normal -1.0000 0.0000 0.0000
      outer loop
         vertex 0.0000 -16.1947 9.3500
         vertex 0.0000 -13.2229 13.2229
         vertex 0.0000 -9.9342 0.5000
      endloop
   endfacet
   facet normal -1.0000 0.0000 0.0000
      outer loop
         vertex 0.0000 -9.9342 0.5000
         vertex 0.0000 -13.2229 13.2229
         vertex 0.0000 -9.3500 16.1947
      endloop
   endfacet
   facet normal -1.0000 0.0000 0.0000
      outer loop
         vertex 0.0000 -9.9342 0.5000
         vertex 0.0000 -9.3500 16.1947
         vertex 0.0000 -9.6593 2.5882
      endloop
   endfacet
   facet normal -1.0000 0.0000 0.0000
      outer loop
         vertex 0.0000 -9.6593 2.5882
         vertex 0.0000 -9.3500 16.1947
         vertex 0.0000 -8.6603 5.0000
      endloop
   endfacet
   facet normal -1.0000 0.0000 0.0000
      outer loop
         vertex 0.0000 -9.9342 0.5000
         vertex 0.0000 -18.6342 0.5000
         vertex 0.0000 -18.0628 4.8399
      endloop
   endfacet
   facet normal -1.0000 0.0000 0.0000
      outer loop
         vertex 0.0000 -9.9342 0.5000
         vertex 0.0000 -18.0628 4.8399
         vertex 0.0000 -16.1947 9.3500
      endloop
   endfacet
   facet normal 1.0000 0.0000 0.0000
      outer loop
         vertex 22.3000 11.0000 0.5000
         vertex 22.3000 12.1203 -12.1203
         vertex 22.3000 12.1203 12.1203
      endloop
   endfacet
   facet normal 1.0000 0.0000 0.0000
      outer loop
         vertex 22.3000 12.1203 12.1203
         vertex 22.3000 12.1203 -12.1203
         vertex 22.3000 14.8442 -8.5703
      endloop
   endfacet
   facet normal 1.0000 0.0000 0.0000
      outer loop
         vertex 22.3000 12.1203 12.1203
         vertex 22.3000 14.8442 -8.5703
         vertex 22.3000 14.8442 8.5703
      endloop
   endfacet
   facet normal 1.0000 0.0000 0.0000
      outer loop
         vertex 22.3000 14.8442 8.5703
         vertex 22.3000 14.8442 -8.5703
         vertex 22.3000 15.9721 -0.0000
      endloop
   endfacet
   facet normal 1.0000 0.0000 0.0000
      outer loop
         vertex 22.3000 14.8442 8.5703
         vertex 22.3000 15.9721 -0.0000
         vertex 22.3000 16.5566 4.4363
      endloop
   endfacet
   facet normal 1.0000 0.0000 0.0000
      outer loop
         vertex 22.3000 16.5566 4.4363
         vertex 22.3000 15.9721 -0.0000
         vertex 22.3000 16.3054 1.2440
      endloop
   endfacet
   facet normal 1.0000 0.0000 0.0000
      outer loop
         vertex 22.3000 16.5566 4.4363
         vertex 22.3000 16.3054 1.2440
         vertex 22.3000 16.8987 1.8373
      endloop
   endfacet
   facet normal 1.0000 0.0000 0.0000
      outer loop
         vertex 22.3000 16.5566 -4.4363
         vertex 22.3000 16.8987 -1.8373
         vertex 22.3000 16.3054 -1.2440
      endloop
   endfacet
   facet normal 1.0000 0.0000 0.0000
      outer loop
         vertex 22.3000 16.5566 -4.4363
         vertex 22.3000 16.3054 -1.2440
         vertex 22.3000 15.9721 -0.0000
      endloop
   endfacet
   facet normal 1.0000 0.0000 0.0000
      outer loop
         vertex 22.3000 16.5566 -4.4363
         vertex 22.3000 15.9721 -0.0000
         vertex 22.3000 14.8442 -8.5703
      endloop
   endfacet
   facet normal 1.0000 0.0000 0.0000
      outer loop
         vertex 22.3000 7.9290 6.0935
         vertex 22.3000 8.6603 5.0000
         vertex 22.3000 9.5350 8.3871
      endloop
   endfacet
   facet normal 1.0000 0.0000 0.0000
      outer loop
         vertex 22.3000 9.5350 8.3871
         vertex 22.3000 8.6603 5.0000
         vertex 22.3000 9.6593 2.5882
      endloop
   endfacet
   facet normal 1.0000 0.0000 0.0000
      outer loop
         vertex 22.3000 9.5350 8.3871
         vertex 22.3000 9.6593 2.5882
         vertex 22.3000 12.1203 12.1203
      endloop
   endfacet
   facet normal 1.0000 0.0000 0.0000
      outer loop
         vertex 22.3000 12.1203 12.1203
         vertex 22.3000 9.6593 2.5882
         vertex 22.3000 9.9342 0.5000
      endloop
   endfacet
   facet normal 1.0000 0.0000 0.0000
      outer loop
         vertex 22.3000 12.1203 12.1203
         vertex 22.3000 9.9342 0.5000
         vertex 22.3000 11.0000 0.5000
      endloop
   endfacet
   facet normal 1.0000 0.0000 0.0000
      outer loop
         vertex 22.3000 2.5882 9.6593
         vertex 22.3000 3.0141 9.5349
         vertex 22.3000 4.4363 16.5566
      endloop
   endfacet
   facet normal 1.0000 0.0000 0.0000
      outer loop
         vertex 22.3000 4.4363 16.5566
         vertex 22.3000 3.0141 9.5349
         vertex 22.3000 4.6201 11.8286
      endloop
   endfacet
   facet normal 1.0000 0.0000 0.0000
      outer loop
         vertex 22.3000 4.4363 16.5566
         vertex 22.3000 4.6201 11.8286
         vertex 22.3000 8.5703 14.8442
      endloop
   endfacet
   facet normal 1.0000 0.0000 0.0000
      outer loop
         vertex 22.3000 8.5703 14.8442
         vertex 22.3000 4.6201 11.8286
         vertex 22.3000 9.5350 8.3871
      endloop
   endfacet
   facet normal 1.0000 0.0000 0.0000
      outer loop
         vertex 22.3000 8.5703 14.8442
         vertex 22.3000 9.5350 8.3871
         vertex 22.3000 12.1203 12.1203
      endloop
   endfacet
   facet normal 1.0000 0.0000 0.0000
      outer loop
         vertex 22.3000 0.0000 17.1406
         vertex 22.3000 -4.4363 16.5566
         vertex 22.3000 -2.5882 9.6593
      endloop
   endfacet
   facet normal 1.0000 0.0000 0.0000
      outer loop
         vertex 22.3000 0.0000 17.1406
         vertex 22.3000 -2.5882 9.6593
         vertex 22.3000 0.0000 10.0000
      endloop
   endfacet
   facet normal 1.0000 0.0000 0.0000
      outer loop
         vertex 22.3000 0.0000 17.1406
         vertex 22.3000 0.0000 10.0000
         vertex 22.3000 2.5882 9.6593
      endloop
   endfacet
   facet normal 1.0000 0.0000 0.0000
      outer loop
         vertex 22.3000 0.0000 17.1406
         vertex 22.3000 2.5882 9.6593
         vertex 22.3000 4.4363 16.5566
      endloop
   endfacet
   facet normal 1.0000 0.0000 0.0000
      outer loop
         vertex 22.3000 -9.6593 2.5882
         vertex 22.3000 -8.6603 5.0000
         vertex 22.3000 -8.5703 14.8442
      endloop
   endfacet
   facet normal 1.0000 0.0000 0.0000
      outer loop
         vertex 22.3000 -8.5703 14.8442
         vertex 22.3000 -8.6603 5.0000
         vertex 22.3000 -7.0711 7.0711
      endloop
   endfacet
   facet normal 1.0000 0.0000 0.0000
      outer loop
         vertex 22.3000 -8.5703 14.8442
         vertex 22.3000 -7.0711 7.0711
         vertex 22.3000 -4.4363 16.5566
      endloop
   endfacet
   facet normal 1.0000 0.0000 0.0000
      outer loop
         vertex 22.3000 -4.4363 16.5566
         vertex 22.3000 -7.0711 7.0711
         vertex 22.3000 -5.0000 8.6603
      endloop
   endfacet
   facet normal 1.0000 0.0000 0.0000
      outer loop
         vertex 22.3000 -4.4363 16.5566
         vertex 22.3000 -5.0000 8.6603
         vertex 22.3000 -2.5882 9.6593
      endloop
   endfacet
   facet normal 1.0000 0.0000 0.0000
      outer loop
         vertex 22.3000 -9.9342 0.5000
         vertex 22.3000 -9.6593 2.5882
         vertex 22.3000 -8.5703 14.8442
      endloop
   endfacet
   facet normal 1.0000 0.0000 0.0000
      outer loop
         vertex 22.3000 -9.9342 0.5000
         vertex 22.3000 -8.5703 14.8442
         vertex 22.3000 -12.1203 12.1203
      endloop
   endfacet
   facet normal 1.0000 0.0000 0.0000
      outer loop
         vertex 22.3000 -9.9342 0.5000
         vertex 22.3000 -12.1203 12.1203
         vertex 22.3000 -14.8442 8.5703
      endloop
   endfacet
   facet normal 1.0000 0.0000 0.0000
      outer loop
         vertex 22.3000 -9.9342 0.5000
         vertex 22.3000 -14.8442 8.5703
         vertex 22.3000 -16.5566 4.4363
      endloop
   endfacet
   facet normal 1.0000 0.0000 0.0000
      outer loop
         vertex 22.3000 -9.9342 0.5000
         vertex 22.3000 -16.5566 4.4363
         vertex 22.3000 -17.0748 0.5000
      endloop
   endfacet
   facet normal 1.0000 0.0000 0.0000
      outer loop
         vertex 22.3000 12.1203 -12.1203
         vertex 22.3000 11.0000 0.5000
         vertex 22.3000 11.0000 -0.5000
      endloop
   endfacet
   facet normal 1.0000 0.0000 0.0000
      outer loop
         vertex 22.3000 12.1203 -12.1203
         vertex 22.3000 11.0000 -0.5000
         vertex 22.3000 9.9342 -0.5000
      endloop
   endfacet
   facet normal 1.0000 0.0000 0.0000
      outer loop
         vertex 22.3000 12.1203 -12.1203
         vertex 22.3000 9.9342 -0.5000
         vertex 22.3000 9.6593 -2.5882
      endloop
   endfacet
   facet normal 1.0000 0.0000 0.0000
      outer loop
         vertex 22.3000 12.1203 -12.1203
         vertex 22.3000 9.6593 -2.5882
         vertex 22.3000 8.6603 -5.0000
      endloop
   endfacet
   facet normal 1.0000 0.0000 0.0000
      outer loop
         vertex 22.3000 12.1203 -12.1203
         vertex 22.3000 8.6603 -5.0000
         vertex 22.3000 8.5703 -14.8442
      endloop
   endfacet
   facet normal 1.0000 0.0000 0.0000
      outer loop
         vertex 22.3000 8.6603 -5.0000
         vertex 22.3000 7.0711 -7.0711
         vertex 22.3000 8.5703 -14.8442
      endloop
   endfacet
   facet normal 1.0000 0.0000 0.0000
      outer loop
         vertex 22.3000 8.5703 -14.8442
         vertex 22.3000 7.0711 -7.0711
         vertex 22.3000 5.0000 -8.6603
      endloop
   endfacet
   facet normal 1.0000 0.0000 0.0000
      outer loop
         vertex 22.3000 8.5703 -14.8442
         vertex 22.3000 5.0000 -8.6603
         vertex 22.3000 4.4363 -16.5566
      endloop
   endfacet
   facet normal 1.0000 0.0000 0.0000
      outer loop
         vertex 22.3000 4.4363 -16.5566
         vertex 22.3000 5.0000 -8.6603
         vertex 22.3000 2.5882 -9.6593
      endloop
   endfacet
   facet normal 1.0000 0.0000 0.0000
      outer loop
         vertex 22.3000 4.4363 -16.5566
         vertex 22.3000 2.5882 -9.6593
         vertex 22.3000 -0.0000 -10.0000
      endloop
   endfacet
   facet normal 1.0000 0.0000 0.0000
      outer loop
         vertex 22.3000 4.4363 -16.5566
         vertex 22.3000 -0.0000 -10.0000
         vertex 22.3000 -0.0000 -17.1406
      endloop
   endfacet
   facet normal 1.0000 0.0000 0.0000
      outer loop
         vertex 22.3000 -0.0000 -17.1406
         vertex 22.3000 -0.0000 -10.0000
         vertex 22.3000 -2.5882 -9.6593
      endloop
   endfacet
   facet normal 1.0000 0.0000 0.0000
      outer loop
         vertex 22.3000 -0.0000 -17.1406
         vertex 22.3000 -2.5882 -9.6593
         vertex 22.3000 -4.4363 -16.5566
      endloop
   endfacet
   facet normal 1.0000 0.0000 0.0000
      outer loop
         vertex 22.3000 -4.4363 -16.5566
         vertex 22.3000 -2.5882 -9.6593
         vertex 22.3000 -5.0000 -8.6603
      endloop
   endfacet
   facet normal 1.0000 0.0000 0.0000
      outer loop
         vertex 22.3000 -4.4363 -16.5566
         vertex 22.3000 -5.0000 -8.6603
         vertex 22.3000 -7.0711 -7.0711
      endloop
   endfacet
   facet normal 1.0000 0.0000 0.0000
      outer loop
         vertex 22.3000 -8.5703 -14.8442
         vertex 22.3000 -4.4363 -16.5566
         vertex 22.3000 -7.0711 -7.0711
      endloop
   endfacet
   facet normal 1.0000 0.0000 0.0000
      outer loop
         vertex 22.3000 -8.5703 -14.8442
         vertex 22.3000 -7.0711 -7.0711
         vertex 22.3000 -8.6603 -5.0000
      endloop
   endfacet
   facet normal 1.0000 0.0000 0.0000
      outer loop
         vertex 22.3000 -8.5703 -14.8442
         vertex 22.3000 -8.6603 -5.0000
         vertex 22.3000 -9.6593 -2.5882
      endloop
   endfacet
   facet normal 1.0000 0.0000 0.0000
      outer loop
         vertex 22.3000 -8.5703 -14.8442
         vertex 22.3000 -9.6593 -2.5882
         vertex 22.3000 -9.9342 -0.5000
      endloop
   endfacet
   facet normal 1.0000 0.0000 0.0000
      outer loop
         vertex 22.3000 -8.5703 -14.8442
         vertex 22.3000 -9.9342 -0.5000
         vertex 22.3000 -12.1203 -12.1203
      endloop
   endfacet
   facet normal 1.0000 0.0000 0.0000
      outer loop
         vertex 22.3000 -9.9342 -0.5000
         vertex 22.3000 -17.0748 -0.5000
         vertex 22.3000 -16.5566 -4.4363
      endloop
   endfacet
   facet normal 1.0000 0.0000 0.0000
      outer loop
         vertex 22.3000 -9.9342 -0.5000
         vertex 22.3000 -16.5566 -4.4363
         vertex 22.3000 -14.8442 -8.5703
      endloop
   endfacet
   facet normal 1.0000 0.0000 0.0000
      outer loop
         vertex 22.3000 -9.9342 -0.5000
         vertex 22.3000 -14.8442 -8.5703
         vertex 22.3000 -12.1203 -12.1203
      endloop
   endfacet
   facet normal 0.0000 -0.9848 -0.1736
      outer loop
         vertex 0.0000 1.3819 -16.9951
         vertex 0.0000 1.6444 -18.4835
         vertex 0.2127 1.6785 -18.6774
      endloop
   endfacet
   facet normal 0.0000 -0.9964 -0.0853
      outer loop
         vertex 0.0000 1.3819 -16.9951
         vertex 0.2127 1.6785 -18.6774
         vertex 1.7753 1.6785 -18.6774
      endloop
   endfacet
   facet normal 0.0000 -0.9848 -0.1736
      outer loop
         vertex 0.0000 1.3819 -16.9951
         vertex 1.7753 1.6785 -18.6774
         vertex 11.5000 1.5614 -18.0128
      endloop
   endfacet
   facet normal 0.0000 -0.9403 -0.3403
      outer loop
         vertex 0.0000 1.3819 -16.9951
         vertex 11.5000 1.5614 -18.0128
         vertex 11.5000 1.3819 -16.9951
      endloop
   endfacet
   facet normal 0.0703 0.0867 -0.9938
      outer loop
         vertex 21.9783 4.5256 -16.8898
         vertex 21.9783 0.0000 -17.4856
         vertex 12.4336 -0.0000 -18.1531
      endloop
   endfacet
   facet normal 0.0700 0.1302 -0.9890
      outer loop
         vertex 21.9783 4.5256 -16.8898
         vertex 12.4336 -0.0000 -18.1531
         vertex 11.5000 1.5614 -18.0128
      endloop
   endfacet
   facet normal 0.0695 0.1730 -0.9825
      outer loop
         vertex 21.9783 4.5256 -16.8898
         vertex 11.5000 1.5614 -18.0128
         vertex 1.7753 1.6785 -18.6774
      endloop
   endfacet
   facet normal 0.0695 0.1730 -0.9825
      outer loop
         vertex 21.9783 4.5256 -16.8898
         vertex 1.7753 1.6785 -18.6774
         vertex 0.3217 1.6397 -18.7841
      endloop
   endfacet
   facet normal 0.0697 0.2157 -0.9740
      outer loop
         vertex 21.9783 4.5256 -16.8898
         vertex 0.3217 1.6397 -18.7841
         vertex 0.3217 4.9176 -18.3526
      endloop
   endfacet
   facet normal 0.7339 0.0590 -0.6766
      outer loop
         vertex 22.3000 4.4363 -16.5566
         vertex 22.3000 -0.0000 -17.1406
         vertex 21.9783 0.0000 -17.4856
      endloop
   endfacet
   facet normal 0.7339 0.1181 -0.6689
      outer loop
         vertex 22.3000 4.4363 -16.5566
         vertex 21.9783 0.0000 -17.4856
         vertex 21.9783 4.5256 -16.8898
      endloop
   endfacet
   facet normal -0.6806 0.1270 -0.7216
      outer loop
         vertex 0.3217 4.9176 -18.3526
         vertex 0.3217 1.6397 -18.7841
         vertex 0.2127 1.6785 -18.6774
      endloop
   endfacet
   facet normal -0.6806 0.1270 -0.7216
      outer loop
         vertex 0.3217 4.9176 -18.3526
         vertex 0.2127 1.6785 -18.6774
         vertex 0.0000 1.6444 -18.4835
      endloop
   endfacet
   facet normal -0.6816 0.1582 -0.7144
      outer loop
         vertex 0.3217 4.9176 -18.3526
         vertex 0.0000 1.6444 -18.4835
         vertex 0.0000 4.8399 -18.0628
      endloop
   endfacet
   facet normal 0.0000 -0.0869 0.9962
      outer loop
         vertex 0.0000 2.5882 -9.6593
         vertex 0.0000 0.0000 -10.0000
         vertex 22.3000 -0.0000 -10.0000
      endloop
   endfacet
   facet normal 0.0000 -0.1739 0.9848
      outer loop
         vertex 0.0000 2.5882 -9.6593
         vertex 22.3000 -0.0000 -10.0000
         vertex 22.3000 2.5882 -9.6593
      endloop
   endfacet
   facet normal 0.0000 -0.8202 -0.5721
      outer loop
         vertex 0.0000 0.2839 -15.6866
         vertex 0.0000 1.3819 -16.9951
         vertex 11.5000 1.3819 -16.9951
      endloop
   endfacet
   facet normal 0.0000 -0.7058 -0.7084
      outer loop
         vertex 0.0000 0.2839 -15.6866
         vertex 11.5000 1.3819 -16.9951
         vertex 11.5000 0.2839 -15.6866
      endloop
   endfacet
   facet normal 0.0000 -0.4243 -0.9055
      outer loop
         vertex 0.0000 -1.3213 -15.1023
         vertex 0.0000 0.2839 -15.6866
         vertex 11.5000 0.2839 -15.6866
      endloop
   endfacet
   facet normal 0.0000 -0.2571 -0.9664
      outer loop
         vertex 0.0000 -1.3213 -15.1023
         vertex 11.5000 0.2839 -15.6866
         vertex 11.5000 -1.3213 -15.1023
      endloop
   endfacet
   facet normal -0.8652 -0.4716 -0.1707
      outer loop
         vertex 12.8932 -0.8051 -18.0149
         vertex 11.5000 1.3819 -16.9951
         vertex 11.5000 1.5614 -18.0128
      endloop
   endfacet
   facet normal -0.8626 -0.4890 -0.1298
      outer loop
         vertex 12.8932 -0.8051 -18.0149
         vertex 11.5000 1.5614 -18.0128
         vertex 12.4336 -0.0000 -18.1531
      endloop
   endfacet
   facet normal -0.8725 -0.3448 -0.3461
      outer loop
         vertex 13.0864 -1.2921 -17.9373
         vertex 11.5000 0.2839 -15.6866
         vertex 11.5000 1.3819 -16.9951
      endloop
   endfacet
   facet normal -0.8725 -0.4007 -0.2795
      outer loop
         vertex 13.0864 -1.2921 -17.9373
         vertex 11.5000 1.3819 -16.9951
         vertex 12.8932 -0.8051 -18.0149
      endloop
   endfacet
   facet normal -0.8725 -0.2073 -0.4424
      outer loop
         vertex 11.5000 0.2839 -15.6866
         vertex 13.0864 -1.2921 -17.9373
         vertex 13.1207 -1.5659 -17.8988
      endloop
   endfacet
   facet normal -0.8725 -0.1256 -0.4721
      outer loop
         vertex 11.5000 0.2839 -15.6866
         vertex 13.1207 -1.5659 -17.8988
         vertex 11.5000 -1.3213 -15.1023
      endloop
   endfacet
   facet normal 0.0000 -0.9845 0.1754
      outer loop
         vertex 1.7753 1.6785 -18.6774
         vertex 0.2127 1.6785 -18.6774
         vertex 0.3217 1.6397 -18.7841
      endloop
   endfacet
   facet normal 0.0703 0.3410 -0.9374
      outer loop
         vertex 21.9783 4.5256 -16.8898
         vertex 0.3217 4.9176 -18.3526
         vertex 0.3217 9.5000 -16.4545
      endloop
   endfacet
   facet normal 0.0703 0.4218 -0.9040
      outer loop
         vertex 21.9783 4.5256 -16.8898
         vertex 0.3217 9.5000 -16.4545
         vertex 21.9783 8.7428 -15.1430
      endloop
   endfacet
   facet normal 0.7339 0.2322 -0.6383
      outer loop
         vertex 22.3000 8.5703 -14.8442
         vertex 22.3000 4.4363 -16.5566
         vertex 21.9783 4.5256 -16.8898
      endloop
   endfacet
   facet normal 0.7339 0.2872 -0.6155
      outer loop
         vertex 22.3000 8.5703 -14.8442
         vertex 21.9783 4.5256 -16.8898
         vertex 21.9783 8.7428 -15.1430
      endloop
   endfacet
   facet normal -0.6848 0.3081 -0.6604
      outer loop
         vertex 0.0000 4.8399 -18.0628
         vertex 0.0000 9.3500 -16.1947
         vertex 0.3217 9.5000 -16.4545
      endloop
   endfacet
   facet normal -0.6848 0.2491 -0.6849
      outer loop
         vertex 0.0000 4.8399 -18.0628
         vertex 0.3217 9.5000 -16.4545
         vertex 0.3217 4.9176 -18.3526
      endloop
   endfacet
   facet normal 0.0000 -0.3418 0.9398
      outer loop
         vertex 0.0000 5.0000 -8.6603
         vertex 0.0000 2.5882 -9.6593
         vertex 22.3000 2.5882 -9.6593
      endloop
   endfacet
   facet normal 0.0000 -0.4228 0.9062
      outer loop
         vertex 0.0000 5.0000 -8.6603
         vertex 22.3000 2.5882 -9.6593
         vertex 22.3000 5.0000 -8.6603
      endloop
   endfacet
   facet normal 0.0703 0.5720 -0.8173
      outer loop
         vertex 21.9783 8.7428 -15.1430
         vertex 0.3217 9.5000 -16.4545
         vertex 0.3217 13.4350 -13.4350
      endloop
   endfacet
   facet normal 0.0703 0.6414 -0.7640
      outer loop
         vertex 21.9783 8.7428 -15.1430
         vertex 0.3217 13.4350 -13.4350
         vertex 21.9783 12.3642 -12.3642
      endloop
   endfacet
   facet normal 0.7339 0.3895 -0.5565
      outer loop
         vertex 22.3000 12.1203 -12.1203
         vertex 22.3000 8.5703 -14.8442
         vertex 21.9783 8.7428 -15.1430
      endloop
   endfacet
   facet normal 0.7339 0.4367 -0.5202
      outer loop
         vertex 22.3000 12.1203 -12.1203
         vertex 21.9783 8.7428 -15.1430
         vertex 21.9783 12.3642 -12.3642
      endloop
   endfacet
   facet normal -0.6848 0.4179 -0.5971
      outer loop
         vertex 0.3217 9.5000 -16.4545
         vertex 0.0000 9.3500 -16.1947
         vertex 0.0000 13.2229 -13.2229
      endloop
   endfacet
   facet normal -0.6848 0.4686 -0.5582
      outer loop
         vertex 0.3217 9.5000 -16.4545
         vertex 0.0000 13.2229 -13.2229
         vertex 0.3217 13.4350 -13.4350
      endloop
   endfacet
   facet normal 0.0000 -0.5734 0.8193
      outer loop
         vertex 0.0000 7.0711 -7.0711
         vertex 0.0000 5.0000 -8.6603
         vertex 22.3000 5.0000 -8.6603
      endloop
   endfacet
   facet normal 0.0000 -0.6430 0.7659
      outer loop
         vertex 0.0000 7.0711 -7.0711
         vertex 22.3000 5.0000 -8.6603
         vertex 22.3000 7.0711 -7.0711
      endloop
   endfacet
   facet normal 0.0703 0.7640 -0.6414
      outer loop
         vertex 21.9783 12.3642 -12.3642
         vertex 0.3217 13.4350 -13.4350
         vertex 0.3217 16.4545 -9.5000
      endloop
   endfacet
   facet normal 0.0703 0.8173 -0.5720
      outer loop
         vertex 21.9783 12.3642 -12.3642
         vertex 0.3217 16.4545 -9.5000
         vertex 21.9783 15.1430 -8.7428
      endloop
   endfacet
   facet normal 0.7339 0.5202 -0.4367
      outer loop
         vertex 22.3000 12.1203 -12.1203
         vertex 21.9783 12.3642 -12.3642
         vertex 21.9783 15.1430 -8.7428
      endloop
   endfacet
   facet normal 0.7339 0.5565 -0.3895
      outer loop
         vertex 22.3000 12.1203 -12.1203
         vertex 21.9783 15.1430 -8.7428
         vertex 22.3000 14.8442 -8.5703
      endloop
   endfacet
   facet normal -0.6848 0.5582 -0.4686
      outer loop
         vertex 0.3217 16.4545 -9.5000
         vertex 0.3217 13.4350 -13.4350
         vertex 0.0000 13.2229 -13.2229
      endloop
   endfacet
   facet normal -0.6848 0.5971 -0.4179
      outer loop
         vertex 0.3217 16.4545 -9.5000
         vertex 0.0000 13.2229 -13.2229
         vertex 0.0000 16.1947 -9.3500
      endloop
   endfacet
   facet normal 0.0000 -0.7659 0.6430
      outer loop
         vertex 0.0000 8.6603 -5.0000
         vertex 0.0000 7.0711 -7.0711
         vertex 22.3000 7.0711 -7.0711
      endloop
   endfacet
   facet normal 0.0000 -0.8193 0.5734
      outer loop
         vertex 0.0000 8.6603 -5.0000
         vertex 22.3000 7.0711 -7.0711
         vertex 22.3000 8.6603 -5.0000
      endloop
   endfacet
   facet normal 0.0703 0.9374 -0.3410
      outer loop
         vertex 0.3217 18.3526 -4.9176
         vertex 21.9783 16.8898 -4.5256
         vertex 21.9783 15.1430 -8.7428
      endloop
   endfacet
   facet normal 0.0703 0.9040 -0.4218
      outer loop
         vertex 0.3217 18.3526 -4.9176
         vertex 21.9783 15.1430 -8.7428
         vertex 0.3217 16.4545 -9.5000
      endloop
   endfacet
   facet normal 0.7339 0.6155 -0.2872
      outer loop
         vertex 22.3000 16.5566 -4.4363
         vertex 22.3000 14.8442 -8.5703
         vertex 21.9783 15.1430 -8.7428
      endloop
   endfacet
   facet normal 0.7339 0.6383 -0.2322
      outer loop
         vertex 22.3000 16.5566 -4.4363
         vertex 21.9783 15.1430 -8.7428
         vertex 21.9783 16.8898 -4.5256
      endloop
   endfacet
   facet normal -0.6848 0.6849 -0.2491
      outer loop
         vertex 0.0000 16.1947 -9.3500
         vertex 0.0000 18.0628 -4.8399
         vertex 0.3217 18.3526 -4.9176
      endloop
   endfacet
   facet normal -0.6848 0.6604 -0.3081
      outer loop
         vertex 0.0000 16.1947 -9.3500
         vertex 0.3217 18.3526 -4.9176
         vertex 0.3217 16.4545 -9.5000
      endloop
   endfacet
   facet normal 0.0000 -0.9062 0.4228
      outer loop
         vertex 0.0000 9.6593 -2.5882
         vertex 0.0000 8.6603 -5.0000
         vertex 22.3000 8.6603 -5.0000
      endloop
   endfacet
   facet normal 0.0000 -0.9398 0.3418
      outer loop
         vertex 0.0000 9.6593 -2.5882
         vertex 22.3000 8.6603 -5.0000
         vertex 22.3000 9.6593 -2.5882
      endloop
   endfacet
   facet normal 0.0000 0.9391 0.3437
      outer loop
         vertex 22.3000 16.3054 -1.2440
         vertex 0.0000 16.3054 -1.2440
         vertex 0.0000 15.9721 -0.0000
      endloop
   endfacet
   facet normal 0.0000 0.9851 0.1719
      outer loop
         vertex 22.3000 16.3054 -1.2440
         vertex 0.0000 15.9721 -0.0000
         vertex 22.3000 15.9721 -0.0000
      endloop
   endfacet
   facet normal 0.0697 0.9740 -0.2157
      outer loop
         vertex 21.9783 16.8898 -4.5256
         vertex 0.3217 18.3526 -4.9176
         vertex 0.3217 18.6802 -2.4289
      endloop
   endfacet
   facet normal 0.0695 0.9825 -0.1730
      outer loop
         vertex 21.9783 16.8898 -4.5256
         vertex 0.3217 18.6802 -2.4289
         vertex 3.3600 18.4600 -2.4879
      endloop
   endfacet
   facet normal 0.0695 0.9825 -0.1730
      outer loop
         vertex 21.9783 16.8898 -4.5256
         vertex 3.3600 18.4600 -2.4879
         vertex 21.7771 17.2160 -2.1546
      endloop
   endfacet
   facet normal 0.0695 0.9825 -0.1730
      outer loop
         vertex 21.9783 16.8898 -4.5256
         vertex 21.7771 17.2160 -2.1546
         vertex 21.9783 17.2036 -2.1422
      endloop
   endfacet
   facet normal 0.7310 0.6662 -0.1475
      outer loop
         vertex 22.3000 16.8987 -1.8373
         vertex 22.3000 16.5566 -4.4363
         vertex 21.9783 16.8898 -4.5256
      endloop
   endfacet
   facet normal 0.7300 0.6730 -0.1185
      outer loop
         vertex 22.3000 16.8987 -1.8373
         vertex 21.9783 16.8898 -4.5256
         vertex 21.9783 17.2036 -2.1422
      endloop
   endfacet
   facet normal 0.0000 -0.9763 0.2162
      outer loop
         vertex 0.0000 9.9342 -0.5000
         vertex 0.0000 9.6593 -2.5882
         vertex 22.3000 9.6593 -2.5882
      endloop
   endfacet
   facet normal 0.0000 -0.9849 0.1734
      outer loop
         vertex 0.0000 9.9342 -0.5000
         vertex 22.3000 9.6593 -2.5882
         vertex 22.3000 9.9342 -0.5000
      endloop
   endfacet
   facet normal 0.0000 0.0000 1.0000
      outer loop
         vertex 0.0000 11.0000 -0.5000
         vertex 0.0000 9.9342 -0.5000
         vertex 22.3000 9.9342 -0.5000
      endloop
   endfacet
   facet normal 0.0000 0.0000 1.0000
      outer loop
         vertex 0.0000 11.0000 -0.5000
         vertex 22.3000 9.9342 -0.5000
         vertex 22.3000 11.0000 -0.5000
      endloop
   endfacet
   facet normal 0.0000 0.6414 0.7672
      outer loop
         vertex 21.7771 17.2160 -2.1546
         vertex 0.0000 17.2160 -2.1546
         vertex 0.0000 16.3054 -1.2440
      endloop
   endfacet
   facet normal 0.0000 0.7672 0.6414
      outer loop
         vertex 21.7771 17.2160 -2.1546
         vertex 0.0000 16.3054 -1.2440
         vertex 22.3000 16.3054 -1.2440
      endloop
   endfacet
   facet normal 0.0000 0.7071 0.7071
      outer loop
         vertex 21.7771 17.2160 -2.1546
         vertex 22.3000 16.3054 -1.2440
         vertex 22.3000 16.8987 -1.8373
      endloop
   endfacet
   facet normal 0.0000 0.6445 0.7646
      outer loop
         vertex 21.7771 17.2160 -2.1546
         vertex 22.3000 16.8987 -1.8373
         vertex 21.9783 17.2036 -2.1422
      endloop
   endfacet
   facet normal -0.6806 0.7216 -0.1270
      outer loop
         vertex 0.0000 18.0628 -4.8399
         vertex 0.0000 18.3754 -2.4653
         vertex 0.0939 18.4600 -2.4879
      endloop
   endfacet
   facet normal -0.6806 0.7216 -0.1270
      outer loop
         vertex 0.0000 18.0628 -4.8399
         vertex 0.0939 18.4600 -2.4879
         vertex 0.3217 18.6802 -2.4289
      endloop
   endfacet
   facet normal -0.6816 0.7144 -0.1582
      outer loop
         vertex 0.0000 18.0628 -4.8399
         vertex 0.3217 18.6802 -2.4289
         vertex 0.3217 18.3526 -4.9176
      endloop
   endfacet
   facet normal 0.0000 0.2588 0.9659
      outer loop
         vertex 0.0939 18.4600 -2.4879
         vertex 0.0000 18.3754 -2.4653
         vertex 0.0000 17.2160 -2.1546
      endloop
   endfacet
   facet normal 0.0000 0.3437 0.9391
      outer loop
         vertex 0.0939 18.4600 -2.4879
         vertex 0.0000 17.2160 -2.1546
         vertex 21.7771 17.2160 -2.1546
      endloop
   endfacet
   facet normal 0.0000 0.1719 0.9851
      outer loop
         vertex 0.0939 18.4600 -2.4879
         vertex 21.7771 17.2160 -2.1546
         vertex 3.3600 18.4600 -2.4879
      endloop
   endfacet
   facet normal 0.0000 -0.0890 0.9960
      outer loop
         vertex 0.3217 18.6802 -2.4289
         vertex 0.0939 18.4600 -2.4879
         vertex 3.3600 18.4600 -2.4879
      endloop
   endfacet
   facet normal 0.0000 0.2588 -0.9659
      outer loop
         vertex 0.0000 17.2160 2.1546
         vertex 0.0000 18.3754 2.4653
         vertex 0.0939 18.4600 2.4879
      endloop
   endfacet
   facet normal 0.0000 0.1719 -0.9851
      outer loop
         vertex 0.0000 17.2160 2.1546
         vertex 0.0939 18.4600 2.4879
         vertex 3.3600 18.4600 2.4879
      endloop
   endfacet
   facet normal 0.0000 0.3437 -0.9391
      outer loop
         vertex 0.0000 17.2160 2.1546
         vertex 3.3600 18.4600 2.4879
         vertex 21.7771 17.2160 2.1546
      endloop
   endfacet
   facet normal 0.0695 0.9825 0.1730
      outer loop
         vertex 21.9783 16.8898 4.5256
         vertex 21.9783 17.2036 2.1422
         vertex 21.7771 17.2160 2.1546
      endloop
   endfacet
   facet normal 0.0695 0.9825 0.1730
      outer loop
         vertex 21.9783 16.8898 4.5256
         vertex 21.7771 17.2160 2.1546
         vertex 3.3600 18.4600 2.4879
      endloop
   endfacet
   facet normal 0.0695 0.9825 0.1730
      outer loop
         vertex 21.9783 16.8898 4.5256
         vertex 3.3600 18.4600 2.4879
         vertex 0.3217 18.6802 2.4289
      endloop
   endfacet
   facet normal 0.0697 0.9740 0.2157
      outer loop
         vertex 21.9783 16.8898 4.5256
         vertex 0.3217 18.6802 2.4289
         vertex 0.3217 18.3526 4.9176
      endloop
   endfacet
   facet normal 0.7300 0.6730 0.1185
      outer loop
         vertex 22.3000 16.5566 4.4363
         vertex 22.3000 16.8987 1.8373
         vertex 21.9783 17.2036 2.1422
      endloop
   endfacet
   facet normal 0.7310 0.6662 0.1475
      outer loop
         vertex 22.3000 16.5566 4.4363
         vertex 21.9783 17.2036 2.1422
         vertex 21.9783 16.8898 4.5256
      endloop
   endfacet
   facet normal -0.6806 0.7216 0.1270
      outer loop
         vertex 0.3217 18.3526 4.9176
         vertex 0.3217 18.6802 2.4289
         vertex 0.0939 18.4600 2.4879
      endloop
   endfacet
   facet normal -0.6806 0.7216 0.1270
      outer loop
         vertex 0.3217 18.3526 4.9176
         vertex 0.0939 18.4600 2.4879
         vertex 0.0000 18.3754 2.4653
      endloop
   endfacet
   facet normal -0.6816 0.7144 0.1582
      outer loop
         vertex 0.3217 18.3526 4.9176
         vertex 0.0000 18.3754 2.4653
         vertex 0.0000 18.0628 4.8399
      endloop
   endfacet
   facet normal 0.0000 -0.9849 -0.1734
      outer loop
         vertex 0.0000 9.6593 2.5882
         vertex 0.0000 9.9342 0.5000
         vertex 22.3000 9.9342 0.5000
      endloop
   endfacet
   facet normal 0.0000 -0.9763 -0.2162
      outer loop
         vertex 0.0000 9.6593 2.5882
         vertex 22.3000 9.9342 0.5000
         vertex 22.3000 9.6593 2.5882
      endloop
   endfacet
   facet normal 0.0000 0.0000 -1.0000
      outer loop
         vertex 22.3000 11.0000 0.5000
         vertex 22.3000 9.9342 0.5000
         vertex 0.0000 9.9342 0.5000
      endloop
   endfacet
   facet normal 0.0000 0.0000 -1.0000
      outer loop
         vertex 22.3000 11.0000 0.5000
         vertex 0.0000 9.9342 0.5000
         vertex 0.0000 11.0000 0.5000
      endloop
   endfacet
   facet normal 0.0000 -1.0000 0.0000
      outer loop
         vertex 22.3000 11.0000 -0.5000
         vertex 22.3000 11.0000 0.5000
         vertex 0.0000 11.0000 0.5000
      endloop
   endfacet
   facet normal 0.0000 -1.0000 0.0000
      outer loop
         vertex 22.3000 11.0000 -0.5000
         vertex 0.0000 11.0000 0.5000
         vertex 0.0000 11.0000 -0.5000
      endloop
   endfacet
   facet normal 0.0000 0.7672 -0.6414
      outer loop
         vertex 22.3000 16.3054 1.2440
         vertex 0.0000 16.3054 1.2440
         vertex 0.0000 17.2160 2.1546
      endloop
   endfacet
   facet normal 0.0000 0.6414 -0.7672
      outer loop
         vertex 22.3000 16.3054 1.2440
         vertex 0.0000 17.2160 2.1546
         vertex 21.7771 17.2160 2.1546
      endloop
   endfacet
   facet normal 0.0000 0.7071 -0.7071
      outer loop
         vertex 22.3000 16.3054 1.2440
         vertex 21.7771 17.2160 2.1546
         vertex 21.9783 17.2036 2.1422
      endloop
   endfacet
   facet normal 0.0000 0.7646 -0.6445
      outer loop
         vertex 22.3000 16.3054 1.2440
         vertex 21.9783 17.2036 2.1422
         vertex 22.3000 16.8987 1.8373
      endloop
   endfacet
   facet normal 0.0000 0.9851 -0.1719
      outer loop
         vertex 22.3000 15.9721 -0.0000
         vertex 0.0000 15.9721 -0.0000
         vertex 0.0000 16.3054 1.2440
      endloop
   endfacet
   facet normal 0.0000 0.9391 -0.3437
      outer loop
         vertex 22.3000 15.9721 -0.0000
         vertex 0.0000 16.3054 1.2440
         vertex 22.3000 16.3054 1.2440
      endloop
   endfacet
   facet normal 0.0000 -0.0890 -0.9960
      outer loop
         vertex 3.3600 18.4600 2.4879
         vertex 0.0939 18.4600 2.4879
         vertex 0.3217 18.6802 2.4289
      endloop
   endfacet
   facet normal 0.0703 0.9040 0.4218
      outer loop
         vertex 0.3217 18.3526 4.9176
         vertex 0.3217 16.4545 9.5000
         vertex 21.9783 15.1430 8.7428
      endloop
   endfacet
   facet normal 0.0703 0.9374 0.3410
      outer loop
         vertex 0.3217 18.3526 4.9176
         vertex 21.9783 15.1430 8.7428
         vertex 21.9783 16.8898 4.5256
      endloop
   endfacet
   facet normal 0.7339 0.6383 0.2322
      outer loop
         vertex 22.3000 14.8442 8.5703
         vertex 22.3000 16.5566 4.4363
         vertex 21.9783 16.8898 4.5256
      endloop
   endfacet
   facet normal 0.7339 0.6155 0.2872
      outer loop
         vertex 22.3000 14.8442 8.5703
         vertex 21.9783 16.8898 4.5256
         vertex 21.9783 15.1430 8.7428
      endloop
   endfacet
   facet normal -0.6848 0.6604 0.3081
      outer loop
         vertex 0.0000 18.0628 4.8399
         vertex 0.0000 16.1947 9.3500
         vertex 0.3217 16.4545 9.5000
      endloop
   endfacet
   facet normal -0.6848 0.6849 0.2491
      outer loop
         vertex 0.0000 18.0628 4.8399
         vertex 0.3217 16.4545 9.5000
         vertex 0.3217 18.3526 4.9176
      endloop
   endfacet
   facet normal 0.0000 -0.9433 -0.3318
      outer loop
         vertex 0.0000 8.6603 5.0000
         vertex 0.0000 9.6593 2.5882
         vertex 22.3000 9.6593 2.5882
      endloop
   endfacet
   facet normal 0.0000 -0.9151 -0.4032
      outer loop
         vertex 0.0000 8.6603 5.0000
         vertex 22.3000 9.6593 2.5882
         vertex 22.3000 8.6603 5.0000
      endloop
   endfacet
   facet normal 0.0703 0.7640 0.6414
      outer loop
         vertex 0.3217 16.4545 9.5000
         vertex 0.3217 13.4350 13.4350
         vertex 21.9783 12.3642 12.3642
      endloop
   endfacet
   facet normal 0.0703 0.8173 0.5720
      outer loop
         vertex 0.3217 16.4545 9.5000
         vertex 21.9783 12.3642 12.3642
         vertex 21.9783 15.1430 8.7428
      endloop
   endfacet
   facet normal 0.7339 0.5565 0.3895
      outer loop
         vertex 22.3000 12.1203 12.1203
         vertex 22.3000 14.8442 8.5703
         vertex 21.9783 15.1430 8.7428
      endloop
   endfacet
   facet normal 0.7339 0.5202 0.4367
      outer loop
         vertex 22.3000 12.1203 12.1203
         vertex 21.9783 15.1430 8.7428
         vertex 21.9783 12.3642 12.3642
      endloop
   endfacet
   facet normal -0.6848 0.5971 0.4179
      outer loop
         vertex 0.3217 16.4545 9.5000
         vertex 0.0000 16.1947 9.3500
         vertex 0.0000 13.2229 13.2229
      endloop
   endfacet
   facet normal -0.6848 0.5582 0.4686
      outer loop
         vertex 0.3217 16.4545 9.5000
         vertex 0.0000 13.2229 13.2229
         vertex 0.3217 13.4350 13.4350
      endloop
   endfacet
   facet normal 0.0000 -0.8192 0.5736
      outer loop
         vertex 22.3000 7.9290 6.0935
         vertex 22.3000 9.5350 8.3871
         vertex 0.0000 9.5350 8.3871
      endloop
   endfacet
   facet normal 0.0000 -0.8192 0.5736
      outer loop
         vertex 22.3000 7.9290 6.0935
         vertex 0.0000 9.5350 8.3871
         vertex 0.0000 7.9290 6.0935
      endloop
   endfacet
   facet normal 0.0000 -0.5736 -0.8192
      outer loop
         vertex 22.3000 9.5350 8.3871
         vertex 22.3000 4.6201 11.8286
         vertex 0.0000 4.6201 11.8286
      endloop
   endfacet
   facet normal 0.0000 -0.5736 -0.8192
      outer loop
         vertex 22.3000 9.5350 8.3871
         vertex 0.0000 4.6201 11.8286
         vertex 0.0000 9.5350 8.3871
      endloop
   endfacet
   facet normal 0.0000 -0.8659 -0.5003
      outer loop
         vertex 0.0000 7.9290 6.0935
         vertex 0.0000 8.6603 5.0000
         vertex 22.3000 8.6603 5.0000
      endloop
   endfacet
   facet normal 0.0000 -0.8490 -0.5284
      outer loop
         vertex 0.0000 7.9290 6.0935
         vertex 22.3000 8.6603 5.0000
         vertex 22.3000 7.9290 6.0935
      endloop
   endfacet
   facet normal 0.0703 0.6414 0.7640
      outer loop
         vertex 21.9783 12.3642 12.3642
         vertex 0.3217 13.4350 13.4350
         vertex 0.3217 9.5000 16.4545
      endloop
   endfacet
   facet normal 0.0703 0.5720 0.8173
      outer loop
         vertex 21.9783 12.3642 12.3642
         vertex 0.3217 9.5000 16.4545
         vertex 21.9783 8.7428 15.1430
      endloop
   endfacet
   facet normal 0.7339 0.3895 0.5565
      outer loop
         vertex 21.9783 8.7428 15.1430
         vertex 22.3000 8.5703 14.8442
         vertex 22.3000 12.1203 12.1203
      endloop
   endfacet
   facet normal 0.7339 0.4367 0.5202
      outer loop
         vertex 21.9783 8.7428 15.1430
         vertex 22.3000 12.1203 12.1203
         vertex 21.9783 12.3642 12.3642
      endloop
   endfacet
   facet normal -0.6848 0.4179 0.5971
      outer loop
         vertex 0.0000 13.2229 13.2229
         vertex 0.0000 9.3500 16.1947
         vertex 0.3217 9.5000 16.4545
      endloop
   endfacet
   facet normal -0.6848 0.4686 0.5582
      outer loop
         vertex 0.0000 13.2229 13.2229
         vertex 0.3217 9.5000 16.4545
         vertex 0.3217 13.4350 13.4350
      endloop
   endfacet
   facet normal 0.0703 0.3410 0.9374
      outer loop
         vertex 0.3217 4.9176 18.3526
         vertex 21.9783 4.5256 16.8898
         vertex 21.9783 8.7428 15.1430
      endloop
   endfacet
   facet normal 0.0703 0.4218 0.9040
      outer loop
         vertex 0.3217 4.9176 18.3526
         vertex 21.9783 8.7428 15.1430
         vertex 0.3217 9.5000 16.4545
      endloop
   endfacet
   facet normal 0.7339 0.2872 0.6155
      outer loop
         vertex 22.3000 4.4363 16.5566
         vertex 22.3000 8.5703 14.8442
         vertex 21.9783 8.7428 15.1430
      endloop
   endfacet
   facet normal 0.7339 0.2322 0.6383
      outer loop
         vertex 22.3000 4.4363 16.5566
         vertex 21.9783 8.7428 15.1430
         vertex 21.9783 4.5256 16.8898
      endloop
   endfacet
   facet normal -0.6848 0.2491 0.6849
      outer loop
         vertex 0.0000 9.3500 16.1947
         vertex 0.0000 4.8399 18.0628
         vertex 0.3217 4.9176 18.3526
      endloop
   endfacet
   facet normal -0.6848 0.3081 0.6604
      outer loop
         vertex 0.0000 9.3500 16.1947
         vertex 0.3217 4.9176 18.3526
         vertex 0.3217 9.5000 16.4545
      endloop
   endfacet
   facet normal 0.0000 -0.2557 -0.9668
      outer loop
         vertex 0.0000 2.5882 9.6593
         vertex 0.0000 3.0141 9.5349
         vertex 22.3000 3.0141 9.5349
      endloop
   endfacet
   facet normal 0.0000 -0.2309 -0.9730
      outer loop
         vertex 0.0000 2.5882 9.6593
         vertex 22.3000 3.0141 9.5349
         vertex 22.3000 2.5882 9.6593
      endloop
   endfacet
   facet normal 0.0000 0.8192 -0.5736
      outer loop
         vertex 0.0000 3.0141 9.5349
         vertex 0.0000 4.6201 11.8286
         vertex 22.3000 4.6201 11.8286
      endloop
   endfacet
   facet normal 0.0000 0.8192 -0.5736
      outer loop
         vertex 0.0000 3.0141 9.5349
         vertex 22.3000 4.6201 11.8286
         vertex 22.3000 3.0141 9.5349
      endloop
   endfacet
   facet normal 0.0000 -0.4243 0.9055
      outer loop
         vertex 11.5000 -1.3213 15.1023
         vertex 11.5000 0.2839 15.6866
         vertex 0.0000 0.2839 15.6866
      endloop
   endfacet
   facet normal 0.0000 -0.2571 0.9664
      outer loop
         vertex 11.5000 -1.3213 15.1023
         vertex 0.0000 0.2839 15.6866
         vertex 0.0000 -1.3213 15.1023
      endloop
   endfacet
   facet normal 0.0697 0.2157 0.9740
      outer loop
         vertex 21.9783 4.5256 16.8898
         vertex 0.3217 4.9176 18.3526
         vertex 0.3217 1.6397 18.7841
      endloop
   endfacet
   facet normal 0.0695 0.1730 0.9825
      outer loop
         vertex 21.9783 4.5256 16.8898
         vertex 0.3217 1.6397 18.7841
         vertex 1.7753 1.6785 18.6774
      endloop
   endfacet
   facet normal 0.0695 0.1730 0.9825
      outer loop
         vertex 21.9783 4.5256 16.8898
         vertex 1.7753 1.6785 18.6774
         vertex 11.5000 1.5614 18.0128
      endloop
   endfacet
   facet normal 0.0700 0.1302 0.9890
      outer loop
         vertex 21.9783 4.5256 16.8898
         vertex 11.5000 1.5614 18.0128
         vertex 12.4336 0.0000 18.1531
      endloop
   endfacet
   facet normal 0.0703 0.0867 0.9938
      outer loop
         vertex 21.9783 4.5256 16.8898
         vertex 12.4336 0.0000 18.1531
         vertex 21.9783 -0.0000 17.4856
      endloop
   endfacet
   facet normal 0.7339 0.1181 0.6689
      outer loop
         vertex 22.3000 0.0000 17.1406
         vertex 22.3000 4.4363 16.5566
         vertex 21.9783 4.5256 16.8898
      endloop
   endfacet
   facet normal 0.7339 0.0590 0.6766
      outer loop
         vertex 22.3000 0.0000 17.1406
         vertex 21.9783 4.5256 16.8898
         vertex 21.9783 -0.0000 17.4856
      endloop
   endfacet
   facet normal 0.0000 -0.1382 -0.9904
      outer loop
         vertex 0.0000 0.0000 10.0000
         vertex 0.0000 2.5882 9.6593
         vertex 22.3000 2.5882 9.6593
      endloop
   endfacet
   facet normal 0.0000 -0.0692 -0.9976
      outer loop
         vertex 0.0000 0.0000 10.0000
         vertex 22.3000 2.5882 9.6593
         vertex 22.3000 0.0000 10.0000
      endloop
   endfacet
   facet normal 0.0000 -0.8202 0.5721
      outer loop
         vertex 11.5000 1.3819 16.9951
         vertex 0.0000 1.3819 16.9951
         vertex 0.0000 0.2839 15.6866
      endloop
   endfacet
   facet normal 0.0000 -0.7058 0.7084
      outer loop
         vertex 11.5000 1.3819 16.9951
         vertex 0.0000 0.2839 15.6866
         vertex 11.5000 0.2839 15.6866
      endloop
   endfacet
   facet normal -0.6806 0.1270 0.7216
      outer loop
         vertex 0.2127 1.6785 18.6774
         vertex 0.3217 1.6397 18.7841
         vertex 0.3217 4.9176 18.3526
      endloop
   endfacet
   facet normal -0.6816 0.1582 0.7144
      outer loop
         vertex 0.2127 1.6785 18.6774
         vertex 0.3217 4.9176 18.3526
         vertex 0.0000 4.8399 18.0628
      endloop
   endfacet
   facet normal -0.6806 0.1270 0.7216
      outer loop
         vertex 0.2127 1.6785 18.6774
         vertex 0.0000 4.8399 18.0628
         vertex 0.0000 1.6444 18.4835
      endloop
   endfacet
   facet normal 0.0000 -0.9848 0.1736
      outer loop
         vertex 0.2127 1.6785 18.6774
         vertex 0.0000 1.6444 18.4835
         vertex 0.0000 1.3819 16.9951
      endloop
   endfacet
   facet normal 0.0000 -0.9655 0.2606
      outer loop
         vertex 0.2127 1.6785 18.6774
         vertex 0.0000 1.3819 16.9951
         vertex 11.5000 1.3819 16.9951
      endloop
   endfacet
   facet normal 0.0000 -0.9848 0.1736
      outer loop
         vertex 0.2127 1.6785 18.6774
         vertex 11.5000 1.3819 16.9951
         vertex 11.5000 1.5614 18.0128
      endloop
   endfacet
   facet normal 0.0000 -1.0000 0.0018
      outer loop
         vertex 0.2127 1.6785 18.6774
         vertex 11.5000 1.5614 18.0128
         vertex 1.7753 1.6785 18.6774
      endloop
   endfacet
   facet normal -0.8725 -0.1256 0.4721
      outer loop
         vertex 11.5000 0.2839 15.6866
         vertex 11.5000 -1.3213 15.1023
         vertex 13.1207 -1.5659 17.8988
      endloop
   endfacet
   facet normal -0.8725 -0.2073 0.4424
      outer loop
         vertex 11.5000 0.2839 15.6866
         vertex 13.1207 -1.5659 17.8988
         vertex 13.0864 -1.2921 17.9373
      endloop
   endfacet
   facet normal -0.8725 -0.4007 0.2795
      outer loop
         vertex 12.8932 -0.8051 18.0149
         vertex 11.5000 1.3819 16.9951
         vertex 11.5000 0.2839 15.6866
      endloop
   endfacet
   facet normal -0.8725 -0.3448 0.3461
      outer loop
         vertex 12.8932 -0.8051 18.0149
         vertex 11.5000 0.2839 15.6866
         vertex 13.0864 -1.2921 17.9373
      endloop
   endfacet
   facet normal -0.8652 -0.4716 0.1707
      outer loop
         vertex 11.5000 1.3819 16.9951
         vertex 12.8932 -0.8051 18.0149
         vertex 12.4336 0.0000 18.1531
      endloop
   endfacet
   facet normal -0.8626 -0.4890 0.1298
      outer loop
         vertex 11.5000 1.3819 16.9951
         vertex 12.4336 0.0000 18.1531
         vertex 11.5000 1.5614 18.0128
      endloop
   endfacet
   facet normal 0.0000 -0.9845 -0.1754
      outer loop
         vertex 0.3217 1.6397 18.7841
         vertex 0.2127 1.6785 18.6774
         vertex 1.7753 1.6785 18.6774
      endloop
   endfacet
   facet normal 0.0000 0.9397 0.3420
      outer loop
         vertex 0.0000 -4.3121 16.4970
         vertex 0.0000 -4.8765 18.0477
         vertex 0.0627 -4.8963 18.1021
      endloop
   endfacet
   facet normal 0.0000 0.9664 0.2571
      outer loop
         vertex 0.0000 -4.3121 16.4970
         vertex 0.0627 -4.8963 18.1021
         vertex 3.7764 -4.8963 18.1021
      endloop
   endfacet
   facet normal 0.0000 0.9397 0.3420
      outer loop
         vertex 0.0000 -4.3121 16.4970
         vertex 3.7764 -4.8963 18.1021
         vertex 11.1043 -4.7224 17.6243
      endloop
   endfacet
   facet normal 0.0000 0.9073 0.4206
      outer loop
         vertex 0.0000 -4.3121 16.4970
         vertex 11.1043 -4.7224 17.6243
         vertex 11.5000 -4.7128 17.5979
      endloop
   endfacet
   facet normal 0.0000 0.8669 0.4984
      outer loop
         vertex 0.0000 -4.3121 16.4970
         vertex 11.5000 -4.7128 17.5979
         vertex 11.5000 -4.3121 16.4970
      endloop
   endfacet
   facet normal 0.0703 -0.0867 0.9938
      outer loop
         vertex 21.9783 -4.5256 16.8898
         vertex 21.9783 -0.0000 17.4856
         vertex 12.4336 0.0000 18.1531
      endloop
   endfacet
   facet normal 0.0700 -0.1302 0.9890
      outer loop
         vertex 21.9783 -4.5256 16.8898
         vertex 12.4336 0.0000 18.1531
         vertex 12.8932 -0.8051 18.0149
      endloop
   endfacet
   facet normal 0.0695 -0.1730 0.9825
      outer loop
         vertex 21.9783 -4.5256 16.8898
         vertex 12.8932 -0.8051 18.0149
         vertex 13.0864 -1.2921 17.9373
      endloop
   endfacet
   facet normal 0.0695 -0.1730 0.9825
      outer loop
         vertex 21.9783 -4.5256 16.8898
         vertex 13.0864 -1.2921 17.9373
         vertex 13.1207 -1.5659 17.8988
      endloop
   endfacet
   facet normal 0.0695 -0.1730 0.9825
      outer loop
         vertex 21.9783 -4.5256 16.8898
         vertex 13.1207 -1.5659 17.8988
         vertex 13.0706 -1.8539 17.8644
      endloop
   endfacet
   facet normal 0.0695 -0.1730 0.9825
      outer loop
         vertex 21.9783 -4.5256 16.8898
         vertex 13.0706 -1.8539 17.8644
         vertex 12.8161 -2.4448 17.8044
      endloop
   endfacet
   facet normal 0.0695 -0.1730 0.9825
      outer loop
         vertex 21.9783 -4.5256 16.8898
         vertex 12.8161 -2.4448 17.8044
         vertex 11.5000 -4.7128 17.5979
      endloop
   endfacet
   facet normal 0.0697 -0.2157 0.9740
      outer loop
         vertex 21.9783 -4.5256 16.8898
         vertex 11.5000 -4.7128 17.5979
         vertex 11.1043 -4.7224 17.6243
      endloop
   endfacet
   facet normal 0.7339 -0.1181 0.6689
      outer loop
         vertex 21.9783 -0.0000 17.4856
         vertex 21.9783 -4.5256 16.8898
         vertex 22.3000 -4.4363 16.5566
      endloop
   endfacet
   facet normal 0.7339 -0.0590 0.6766
      outer loop
         vertex 21.9783 -0.0000 17.4856
         vertex 22.3000 -4.4363 16.5566
         vertex 22.3000 0.0000 17.1406
      endloop
   endfacet
   facet normal 0.0000 0.1739 -0.9848
      outer loop
         vertex 22.3000 0.0000 10.0000
         vertex 22.3000 -2.5882 9.6593
         vertex 0.0000 -2.5882 9.6593
      endloop
   endfacet
   facet normal 0.0000 0.0869 -0.9962
      outer loop
         vertex 22.3000 0.0000 10.0000
         vertex 0.0000 -2.5882 9.6593
         vertex 0.0000 0.0000 10.0000
      endloop
   endfacet
   facet normal 0.0000 0.5721 0.8202
      outer loop
         vertex 11.5000 -3.0035 15.3989
         vertex 0.0000 -3.0035 15.3989
         vertex 0.0000 -4.3121 16.4970
      endloop
   endfacet
   facet normal 0.0000 0.7084 0.7058
      outer loop
         vertex 11.5000 -3.0035 15.3989
         vertex 0.0000 -4.3121 16.4970
         vertex 11.5000 -4.3121 16.4970
      endloop
   endfacet
   facet normal 0.0000 0.0853 0.9964
      outer loop
         vertex 11.5000 -1.3213 15.1023
         vertex 0.0000 -1.3213 15.1023
         vertex 0.0000 -3.0035 15.3989
      endloop
   endfacet
   facet normal 0.0000 0.2606 0.9655
      outer loop
         vertex 11.5000 -1.3213 15.1023
         vertex 0.0000 -3.0035 15.3989
         vertex 11.5000 -3.0035 15.3989
      endloop
   endfacet
   facet normal -0.8652 0.4348 0.2500
      outer loop
         vertex 12.8161 -2.4448 17.8044
         vertex 11.5000 -4.3121 16.4970
         vertex 11.5000 -4.7128 17.5979
      endloop
   endfacet
   facet normal -0.8725 0.3461 0.3448
      outer loop
         vertex 11.5000 -3.0035 15.3989
         vertex 11.5000 -4.3121 16.4970
         vertex 12.8161 -2.4448 17.8044
      endloop
   endfacet
   facet normal -0.8725 0.2795 0.4007
      outer loop
         vertex 11.5000 -3.0035 15.3989
         vertex 12.8161 -2.4448 17.8044
         vertex 13.0706 -1.8539 17.8644
      endloop
   endfacet
   facet normal -0.8725 0.1273 0.4717
      outer loop
         vertex 11.5000 -1.3213 15.1023
         vertex 11.5000 -3.0035 15.3989
         vertex 13.0706 -1.8539 17.8644
      endloop
   endfacet
   facet normal -0.8725 0.0417 0.4868
      outer loop
         vertex 11.5000 -1.3213 15.1023
         vertex 13.0706 -1.8539 17.8644
         vertex 13.1207 -1.5659 17.8988
      endloop
   endfacet
   facet normal 0.0000 0.9848 -0.1736
      outer loop
         vertex 0.1583 -4.8781 18.2054
         vertex 0.3217 -4.8506 18.3614
         vertex 2.5006 -4.8781 18.2054
      endloop
   endfacet
   facet normal 0.0000 0.9960 -0.0894
      outer loop
         vertex 0.1583 -4.8781 18.2054
         vertex 2.5006 -4.8781 18.2054
         vertex 3.7764 -4.8963 18.1021
      endloop
   endfacet
   facet normal 0.0000 1.0000 -0.0018
      outer loop
         vertex 0.1583 -4.8781 18.2054
         vertex 3.7764 -4.8963 18.1021
         vertex 0.0627 -4.8963 18.1021
      endloop
   endfacet
   facet normal 0.0697 -0.2157 0.9740
      outer loop
         vertex 2.5006 -4.8781 18.2054
         vertex 0.3217 -4.8506 18.3614
         vertex 0.3217 -4.9176 18.3526
      endloop
   endfacet
   facet normal -0.6816 -0.1582 0.7144
      outer loop
         vertex 0.1583 -4.8781 18.2054
         vertex 0.3217 -4.9176 18.3526
         vertex 0.3217 -4.8506 18.3614
      endloop
   endfacet
   facet normal 0.0703 -0.3410 0.9374
      outer loop
         vertex 21.9783 -8.7428 15.1430
         vertex 21.9783 -4.5256 16.8898
         vertex 11.1043 -4.7224 17.6243
      endloop
   endfacet
   facet normal 0.0700 -0.3817 0.9216
      outer loop
         vertex 21.9783 -8.7428 15.1430
         vertex 11.1043 -4.7224 17.6243
         vertex 3.7764 -4.8963 18.1021
      endloop
   endfacet
   facet normal 0.0700 -0.3817 0.9216
      outer loop
         vertex 21.9783 -8.7428 15.1430
         vertex 3.7764 -4.8963 18.1021
         vertex 2.5006 -4.8781 18.2054
      endloop
   endfacet
   facet normal 0.0703 -0.3410 0.9374
      outer loop
         vertex 21.9783 -8.7428 15.1430
         vertex 2.5006 -4.8781 18.2054
         vertex 0.3217 -4.9176 18.3526
      endloop
   endfacet
   facet normal 0.0703 -0.4218 0.9040
      outer loop
         vertex 21.9783 -8.7428 15.1430
         vertex 0.3217 -4.9176 18.3526
         vertex 0.3217 -9.5000 16.4545
      endloop
   endfacet
   facet normal 0.7339 -0.2872 0.6155
      outer loop
         vertex 21.9783 -4.5256 16.8898
         vertex 21.9783 -8.7428 15.1430
         vertex 22.3000 -8.5703 14.8442
      endloop
   endfacet
   facet normal 0.7339 -0.2322 0.6383
      outer loop
         vertex 21.9783 -4.5256 16.8898
         vertex 22.3000 -8.5703 14.8442
         vertex 22.3000 -4.4363 16.5566
      endloop
   endfacet
   facet normal -0.6848 -0.2491 0.6849
      outer loop
         vertex 0.3217 -9.5000 16.4545
         vertex 0.3217 -4.9176 18.3526
         vertex 0.1583 -4.8781 18.2054
      endloop
   endfacet
   facet normal -0.6830 -0.2795 0.6748
      outer loop
         vertex 0.3217 -9.5000 16.4545
         vertex 0.1583 -4.8781 18.2054
         vertex 0.0627 -4.8963 18.1021
      endloop
   endfacet
   facet normal -0.6806 -0.3095 0.6641
      outer loop
         vertex 0.3217 -9.5000 16.4545
         vertex 0.0627 -4.8963 18.1021
         vertex 0.0000 -4.8765 18.0477
      endloop
   endfacet
   facet normal -0.6816 -0.3377 0.6491
      outer loop
         vertex 0.3217 -9.5000 16.4545
         vertex 0.0000 -4.8765 18.0477
         vertex 0.0000 -9.3500 16.1947
      endloop
   endfacet
   facet normal 0.0000 0.3418 -0.9398
      outer loop
         vertex 0.0000 -5.0000 8.6603
         vertex 0.0000 -2.5882 9.6593
         vertex 22.3000 -2.5882 9.6593
      endloop
   endfacet
   facet normal 0.0000 0.4228 -0.9062
      outer loop
         vertex 0.0000 -5.0000 8.6603
         vertex 22.3000 -2.5882 9.6593
         vertex 22.3000 -5.0000 8.6603
      endloop
   endfacet
   facet normal 0.0703 -0.6414 0.7640
      outer loop
         vertex 0.3217 -9.5000 16.4545
         vertex 0.3217 -13.4350 13.4350
         vertex 21.9783 -12.3642 12.3642
      endloop
   endfacet
   facet normal 0.0703 -0.5720 0.8173
      outer loop
         vertex 0.3217 -9.5000 16.4545
         vertex 21.9783 -12.3642 12.3642
         vertex 21.9783 -8.7428 15.1430
      endloop
   endfacet
   facet normal 0.7339 -0.3895 0.5565
      outer loop
         vertex 22.3000 -12.1203 12.1203
         vertex 22.3000 -8.5703 14.8442
         vertex 21.9783 -8.7428 15.1430
      endloop
   endfacet
   facet normal 0.7339 -0.4367 0.5202
      outer loop
         vertex 22.3000 -12.1203 12.1203
         vertex 21.9783 -8.7428 15.1430
         vertex 21.9783 -12.3642 12.3642
      endloop
   endfacet
   facet normal -0.6848 -0.4686 0.5582
      outer loop
         vertex 0.0000 -9.3500 16.1947
         vertex 0.0000 -13.2229 13.2229
         vertex 0.3217 -13.4350 13.4350
      endloop
   endfacet
   facet normal -0.6848 -0.4179 0.5971
      outer loop
         vertex 0.0000 -9.3500 16.1947
         vertex 0.3217 -13.4350 13.4350
         vertex 0.3217 -9.5000 16.4545
      endloop
   endfacet
   facet normal 0.0000 0.5734 -0.8193
      outer loop
         vertex 0.0000 -7.0711 7.0711
         vertex 0.0000 -5.0000 8.6603
         vertex 22.3000 -5.0000 8.6603
      endloop
   endfacet
   facet normal 0.0000 0.6430 -0.7659
      outer loop
         vertex 0.0000 -7.0711 7.0711
         vertex 22.3000 -5.0000 8.6603
         vertex 22.3000 -7.0711 7.0711
      endloop
   endfacet
   facet normal 0.0703 -0.8173 0.5720
      outer loop
         vertex 0.3217 -13.4350 13.4350
         vertex 0.3217 -16.4545 9.5000
         vertex 21.9783 -15.1430 8.7428
      endloop
   endfacet
   facet normal 0.0703 -0.7640 0.6414
      outer loop
         vertex 0.3217 -13.4350 13.4350
         vertex 21.9783 -15.1430 8.7428
         vertex 21.9783 -12.3642 12.3642
      endloop
   endfacet
   facet normal 0.7339 -0.5565 0.3895
      outer loop
         vertex 21.9783 -15.1430 8.7428
         vertex 22.3000 -14.8442 8.5703
         vertex 22.3000 -12.1203 12.1203
      endloop
   endfacet
   facet normal 0.7339 -0.5202 0.4367
      outer loop
         vertex 21.9783 -15.1430 8.7428
         vertex 22.3000 -12.1203 12.1203
         vertex 21.9783 -12.3642 12.3642
      endloop
   endfacet
   facet normal -0.6848 -0.5971 0.4179
      outer loop
         vertex 0.0000 -13.2229 13.2229
         vertex 0.0000 -16.1947 9.3500
         vertex 0.3217 -16.4545 9.5000
      endloop
   endfacet
   facet normal -0.6848 -0.5582 0.4686
      outer loop
         vertex 0.0000 -13.2229 13.2229
         vertex 0.3217 -16.4545 9.5000
         vertex 0.3217 -13.4350 13.4350
      endloop
   endfacet
   facet normal 0.0000 0.7659 -0.6430
      outer loop
         vertex 0.0000 -8.6603 5.0000
         vertex 0.0000 -7.0711 7.0711
         vertex 22.3000 -7.0711 7.0711
      endloop
   endfacet
   facet normal 0.0000 0.8193 -0.5734
      outer loop
         vertex 0.0000 -8.6603 5.0000
         vertex 22.3000 -7.0711 7.0711
         vertex 22.3000 -8.6603 5.0000
      endloop
   endfacet
   facet normal 0.0703 -0.9374 0.3410
      outer loop
         vertex 0.3217 -16.4545 9.5000
         vertex 0.3217 -18.3526 4.9176
         vertex 21.9783 -16.8898 4.5256
      endloop
   endfacet
   facet normal 0.0703 -0.9040 0.4218
      outer loop
         vertex 0.3217 -16.4545 9.5000
         vertex 21.9783 -16.8898 4.5256
         vertex 21.9783 -15.1430 8.7428
      endloop
   endfacet
   facet normal 0.7339 -0.6155 0.2872
      outer loop
         vertex 22.3000 -16.5566 4.4363
         vertex 22.3000 -14.8442 8.5703
         vertex 21.9783 -15.1430 8.7428
      endloop
   endfacet
   facet normal 0.7339 -0.6383 0.2322
      outer loop
         vertex 22.3000 -16.5566 4.4363
         vertex 21.9783 -15.1430 8.7428
         vertex 21.9783 -16.8898 4.5256
      endloop
   endfacet
   facet normal -0.6848 -0.6849 0.2491
      outer loop
         vertex 0.0000 -16.1947 9.3500
         vertex 0.0000 -18.0628 4.8399
         vertex 0.3217 -18.3526 4.9176
      endloop
   endfacet
   facet normal -0.6848 -0.6604 0.3081
      outer loop
         vertex 0.0000 -16.1947 9.3500
         vertex 0.3217 -18.3526 4.9176
         vertex 0.3217 -16.4545 9.5000
      endloop
   endfacet
   facet normal 0.0000 0.9062 -0.4228
      outer loop
         vertex 0.0000 -9.6593 2.5882
         vertex 0.0000 -8.6603 5.0000
         vertex 22.3000 -8.6603 5.0000
      endloop
   endfacet
   facet normal 0.0000 0.9398 -0.3418
      outer loop
         vertex 0.0000 -9.6593 2.5882
         vertex 22.3000 -8.6603 5.0000
         vertex 22.3000 -9.6593 2.5882
      endloop
   endfacet
   facet normal 0.0695 -0.9825 0.1730
      outer loop
         vertex 0.3217 -18.3526 4.9176
         vertex 0.3217 -18.9342 0.5000
         vertex 21.9783 -17.4198 0.5000
      endloop
   endfacet
   facet normal 0.0697 -0.9740 0.2157
      outer loop
         vertex 0.3217 -18.3526 4.9176
         vertex 21.9783 -17.4198 0.5000
         vertex 21.9783 -16.8898 4.5256
      endloop
   endfacet
   facet normal 0.7300 -0.6730 0.1185
      outer loop
         vertex 21.9783 -17.4198 0.5000
         vertex 22.3000 -17.0748 0.5000
         vertex 22.3000 -16.5566 4.4363
      endloop
   endfacet
   facet normal 0.7310 -0.6662 0.1475
      outer loop
         vertex 21.9783 -17.4198 0.5000
         vertex 22.3000 -16.5566 4.4363
         vertex 21.9783 -16.8898 4.5256
      endloop
   endfacet
   facet normal -0.6806 -0.7216 0.1270
      outer loop
         vertex 0.0000 -18.0628 4.8399
         vertex 0.0000 -18.6342 0.5000
         vertex 0.3217 -18.9342 0.5000
      endloop
   endfacet
   facet normal -0.6816 -0.7144 0.1582
      outer loop
         vertex 0.0000 -18.0628 4.8399
         vertex 0.3217 -18.9342 0.5000
         vertex 0.3217 -18.3526 4.9176
      endloop
   endfacet
   facet normal 0.0000 0.9763 -0.2162
      outer loop
         vertex 0.0000 -9.9342 0.5000
         vertex 0.0000 -9.6593 2.5882
         vertex 22.3000 -9.6593 2.5882
      endloop
   endfacet
   facet normal 0.0000 0.9849 -0.1734
      outer loop
         vertex 0.0000 -9.9342 0.5000
         vertex 22.3000 -9.6593 2.5882
         vertex 22.3000 -9.9342 0.5000
      endloop
   endfacet
   facet normal 0.0000 0.0000 -1.0000
      outer loop
         vertex 22.3000 -9.9342 0.5000
         vertex 22.3000 -17.0748 0.5000
         vertex 21.9783 -17.4198 0.5000
      endloop
   endfacet
   facet normal 0.0000 0.0000 -1.0000
      outer loop
         vertex 22.3000 -9.9342 0.5000
         vertex 21.9783 -17.4198 0.5000
         vertex 0.3217 -18.9342 0.5000
      endloop
   endfacet
   facet normal 0.0000 0.0000 -1.0000
      outer loop
         vertex 22.3000 -9.9342 0.5000
         vertex 0.3217 -18.9342 0.5000
         vertex 0.0000 -18.6342 0.5000
      endloop
   endfacet
   facet normal 0.0000 0.0000 -1.0000
      outer loop
         vertex 22.3000 -9.9342 0.5000
         vertex 0.0000 -18.6342 0.5000
         vertex 0.0000 -9.9342 0.5000
      endloop
   endfacet
   facet normal 0.0695 -0.9825 -0.1730
      outer loop
         vertex 21.9783 -17.4198 -0.5000
         vertex 0.3217 -18.9342 -0.5000
         vertex 0.3217 -18.3526 -4.9176
      endloop
   endfacet
   facet normal 0.0697 -0.9740 -0.2157
      outer loop
         vertex 21.9783 -17.4198 -0.5000
         vertex 0.3217 -18.3526 -4.9176
         vertex 21.9783 -16.8898 -4.5256
      endloop
   endfacet
   facet normal 0.7310 -0.6662 -0.1475
      outer loop
         vertex 21.9783 -17.4198 -0.5000
         vertex 21.9783 -16.8898 -4.5256
         vertex 22.3000 -16.5566 -4.4363
      endloop
   endfacet
   facet normal 0.7300 -0.6730 -0.1185
      outer loop
         vertex 21.9783 -17.4198 -0.5000
         vertex 22.3000 -16.5566 -4.4363
         vertex 22.3000 -17.0748 -0.5000
      endloop
   endfacet
   facet normal -0.6816 -0.7144 -0.1582
      outer loop
         vertex 0.0000 -18.0628 -4.8399
         vertex 0.3217 -18.3526 -4.9176
         vertex 0.3217 -18.9342 -0.5000
      endloop
   endfacet
   facet normal -0.6806 -0.7216 -0.1270
      outer loop
         vertex 0.0000 -18.0628 -4.8399
         vertex 0.3217 -18.9342 -0.5000
         vertex 0.0000 -18.6342 -0.5000
      endloop
   endfacet
   facet normal 0.0000 0.9849 0.1734
      outer loop
         vertex 0.0000 -9.6593 -2.5882
         vertex 0.0000 -9.9342 -0.5000
         vertex 22.3000 -9.9342 -0.5000
      endloop
   endfacet
   facet normal 0.0000 0.9763 0.2162
      outer loop
         vertex 0.0000 -9.6593 -2.5882
         vertex 22.3000 -9.9342 -0.5000
         vertex 22.3000 -9.6593 -2.5882
      endloop
   endfacet
   facet normal 0.0000 0.0000 1.0000
      outer loop
         vertex 0.0000 -9.9342 -0.5000
         vertex 0.0000 -18.6342 -0.5000
         vertex 0.3217 -18.9342 -0.5000
      endloop
   endfacet
   facet normal 0.0000 0.0000 1.0000
      outer loop
         vertex 0.0000 -9.9342 -0.5000
         vertex 0.3217 -18.9342 -0.5000
         vertex 21.9783 -17.4198 -0.5000
      endloop
   endfacet
   facet normal 0.0000 0.0000 1.0000
      outer loop
         vertex 0.0000 -9.9342 -0.5000
         vertex 21.9783 -17.4198 -0.5000
         vertex 22.3000 -17.0748 -0.5000
      endloop
   endfacet
   facet normal 0.0000 0.0000 1.0000
      outer loop
         vertex 0.0000 -9.9342 -0.5000
         vertex 22.3000 -17.0748 -0.5000
         vertex 22.3000 -9.9342 -0.5000
      endloop
   endfacet
   facet normal 0.0703 -0.9374 -0.3410
      outer loop
         vertex 21.9783 -16.8898 -4.5256
         vertex 0.3217 -18.3526 -4.9176
         vertex 0.3217 -16.4545 -9.5000
      endloop
   endfacet
   facet normal 0.0703 -0.9040 -0.4218
      outer loop
         vertex 21.9783 -16.8898 -4.5256
         vertex 0.3217 -16.4545 -9.5000
         vertex 21.9783 -15.1430 -8.7428
      endloop
   endfacet
   facet normal 0.7339 -0.6155 -0.2872
      outer loop
         vertex 21.9783 -16.8898 -4.5256
         vertex 21.9783 -15.1430 -8.7428
         vertex 22.3000 -14.8442 -8.5703
      endloop
   endfacet
   facet normal 0.7339 -0.6383 -0.2322
      outer loop
         vertex 21.9783 -16.8898 -4.5256
         vertex 22.3000 -14.8442 -8.5703
         vertex 22.3000 -16.5566 -4.4363
      endloop
   endfacet
   facet normal -0.6848 -0.6604 -0.3081
      outer loop
         vertex 0.0000 -16.1947 -9.3500
         vertex 0.3217 -16.4545 -9.5000
         vertex 0.3217 -18.3526 -4.9176
      endloop
   endfacet
   facet normal -0.6848 -0.6849 -0.2491
      outer loop
         vertex 0.0000 -16.1947 -9.3500
         vertex 0.3217 -18.3526 -4.9176
         vertex 0.0000 -18.0628 -4.8399
      endloop
   endfacet
   facet normal 0.0000 0.9398 0.3418
      outer loop
         vertex 0.0000 -8.6603 -5.0000
         vertex 0.0000 -9.6593 -2.5882
         vertex 22.3000 -9.6593 -2.5882
      endloop
   endfacet
   facet normal 0.0000 0.9062 0.4228
      outer loop
         vertex 0.0000 -8.6603 -5.0000
         vertex 22.3000 -9.6593 -2.5882
         vertex 22.3000 -8.6603 -5.0000
      endloop
   endfacet
   facet normal 0.0703 -0.7640 -0.6414
      outer loop
         vertex 0.3217 -16.4545 -9.5000
         vertex 0.3217 -13.4350 -13.4350
         vertex 21.9783 -12.3642 -12.3642
      endloop
   endfacet
   facet normal 0.0703 -0.8173 -0.5720
      outer loop
         vertex 0.3217 -16.4545 -9.5000
         vertex 21.9783 -12.3642 -12.3642
         vertex 21.9783 -15.1430 -8.7428
      endloop
   endfacet
   facet normal 0.7339 -0.5565 -0.3895
      outer loop
         vertex 22.3000 -12.1203 -12.1203
         vertex 22.3000 -14.8442 -8.5703
         vertex 21.9783 -15.1430 -8.7428
      endloop
   endfacet
   facet normal 0.7339 -0.5202 -0.4367
      outer loop
         vertex 22.3000 -12.1203 -12.1203
         vertex 21.9783 -15.1430 -8.7428
         vertex 21.9783 -12.3642 -12.3642
      endloop
   endfacet
   facet normal -0.6848 -0.5582 -0.4686
      outer loop
         vertex 0.0000 -16.1947 -9.3500
         vertex 0.0000 -13.2229 -13.2229
         vertex 0.3217 -13.4350 -13.4350
      endloop
   endfacet
   facet normal -0.6848 -0.5971 -0.4179
      outer loop
         vertex 0.0000 -16.1947 -9.3500
         vertex 0.3217 -13.4350 -13.4350
         vertex 0.3217 -16.4545 -9.5000
      endloop
   endfacet
   facet normal 0.0000 0.8193 0.5734
      outer loop
         vertex 0.0000 -7.0711 -7.0711
         vertex 0.0000 -8.6603 -5.0000
         vertex 22.3000 -8.6603 -5.0000
      endloop
   endfacet
   facet normal 0.0000 0.7659 0.6430
      outer loop
         vertex 0.0000 -7.0711 -7.0711
         vertex 22.3000 -8.6603 -5.0000
         vertex 22.3000 -7.0711 -7.0711
      endloop
   endfacet
   facet normal 0.0703 -0.6414 -0.7640
      outer loop
         vertex 21.9783 -12.3642 -12.3642
         vertex 0.3217 -13.4350 -13.4350
         vertex 0.3217 -9.5000 -16.4545
      endloop
   endfacet
   facet normal 0.0703 -0.5720 -0.8173
      outer loop
         vertex 21.9783 -12.3642 -12.3642
         vertex 0.3217 -9.5000 -16.4545
         vertex 21.9783 -8.7428 -15.1430
      endloop
   endfacet
   facet normal 0.7339 -0.4367 -0.5202
      outer loop
         vertex 22.3000 -12.1203 -12.1203
         vertex 21.9783 -12.3642 -12.3642
         vertex 21.9783 -8.7428 -15.1430
      endloop
   endfacet
   facet normal 0.7339 -0.3895 -0.5565
      outer loop
         vertex 22.3000 -12.1203 -12.1203
         vertex 21.9783 -8.7428 -15.1430
         vertex 22.3000 -8.5703 -14.8442
      endloop
   endfacet
   facet normal -0.6848 -0.4686 -0.5582
      outer loop
         vertex 0.3217 -9.5000 -16.4545
         vertex 0.3217 -13.4350 -13.4350
         vertex 0.0000 -13.2229 -13.2229
      endloop
   endfacet
   facet normal -0.6848 -0.4179 -0.5971
      outer loop
         vertex 0.3217 -9.5000 -16.4545
         vertex 0.0000 -13.2229 -13.2229
         vertex 0.0000 -9.3500 -16.1947
      endloop
   endfacet
   facet normal 0.0000 0.6430 0.7659
      outer loop
         vertex 0.0000 -5.0000 -8.6603
         vertex 0.0000 -7.0711 -7.0711
         vertex 22.3000 -7.0711 -7.0711
      endloop
   endfacet
   facet normal 0.0000 0.5734 0.8193
      outer loop
         vertex 0.0000 -5.0000 -8.6603
         vertex 22.3000 -7.0711 -7.0711
         vertex 22.3000 -5.0000 -8.6603
      endloop
   endfacet
   facet normal 0.0000 0.8669 -0.4984
      outer loop
         vertex 0.0000 -4.8765 -18.0477
         vertex 0.0000 -4.3121 -16.4970
         vertex 11.5000 -4.3121 -16.4970
      endloop
   endfacet
   facet normal 0.0000 0.9073 -0.4206
      outer loop
         vertex 0.0000 -4.8765 -18.0477
         vertex 11.5000 -4.3121 -16.4970
         vertex 11.5000 -4.7128 -17.5979
      endloop
   endfacet
   facet normal 0.0000 0.9397 -0.3420
      outer loop
         vertex 0.0000 -4.8765 -18.0477
         vertex 11.5000 -4.7128 -17.5979
         vertex 11.1043 -4.7224 -17.6243
      endloop
   endfacet
   facet normal 0.0000 0.9653 -0.2610
      outer loop
         vertex 0.0000 -4.8765 -18.0477
         vertex 11.1043 -4.7224 -17.6243
         vertex 3.7764 -4.8963 -18.1021
      endloop
   endfacet
   facet normal 0.0000 0.9845 -0.1754
      outer loop
         vertex 0.0000 -4.8765 -18.0477
         vertex 3.7764 -4.8963 -18.1021
         vertex 0.0627 -4.8963 -18.1021
      endloop
   endfacet
   facet normal 0.0703 -0.3410 -0.9374
      outer loop
         vertex 0.3217 -9.5000 -16.4545
         vertex 0.3217 -4.9176 -18.3526
         vertex 2.5006 -4.8781 -18.2054
      endloop
   endfacet
   facet normal 0.0700 -0.3817 -0.9216
      outer loop
         vertex 0.3217 -9.5000 -16.4545
         vertex 2.5006 -4.8781 -18.2054
         vertex 3.7764 -4.8963 -18.1021
      endloop
   endfacet
   facet normal 0.0700 -0.3817 -0.9216
      outer loop
         vertex 0.3217 -9.5000 -16.4545
         vertex 3.7764 -4.8963 -18.1021
         vertex 11.1043 -4.7224 -17.6243
      endloop
   endfacet
   facet normal 0.0703 -0.3410 -0.9374
      outer loop
         vertex 0.3217 -9.5000 -16.4545
         vertex 11.1043 -4.7224 -17.6243
         vertex 21.9783 -4.5256 -16.8898
      endloop
   endfacet
   facet normal 0.0703 -0.4218 -0.9040
      outer loop
         vertex 0.3217 -9.5000 -16.4545
         vertex 21.9783 -4.5256 -16.8898
         vertex 21.9783 -8.7428 -15.1430
      endloop
   endfacet
   facet normal 0.7339 -0.2322 -0.6383
      outer loop
         vertex 21.9783 -4.5256 -16.8898
         vertex 22.3000 -4.4363 -16.5566
         vertex 22.3000 -8.5703 -14.8442
      endloop
   endfacet
   facet normal 0.7339 -0.2872 -0.6155
      outer loop
         vertex 21.9783 -4.5256 -16.8898
         vertex 22.3000 -8.5703 -14.8442
         vertex 21.9783 -8.7428 -15.1430
      endloop
   endfacet
   facet normal -0.6806 -0.3095 -0.6641
      outer loop
         vertex 0.0000 -9.3500 -16.1947
         vertex 0.0000 -4.8765 -18.0477
         vertex 0.0627 -4.8963 -18.1021
      endloop
   endfacet
   facet normal -0.6830 -0.2795 -0.6748
      outer loop
         vertex 0.0000 -9.3500 -16.1947
         vertex 0.0627 -4.8963 -18.1021
         vertex 0.1583 -4.8781 -18.2054
      endloop
   endfacet
   facet normal -0.6848 -0.2491 -0.6849
      outer loop
         vertex 0.0000 -9.3500 -16.1947
         vertex 0.1583 -4.8781 -18.2054
         vertex 0.3217 -4.9176 -18.3526
      endloop
   endfacet
   facet normal -0.6848 -0.3081 -0.6604
      outer loop
         vertex 0.0000 -9.3500 -16.1947
         vertex 0.3217 -4.9176 -18.3526
         vertex 0.3217 -9.5000 -16.4545
      endloop
   endfacet
   facet normal 0.0000 0.4228 0.9062
      outer loop
         vertex 0.0000 -2.5882 -9.6593
         vertex 0.0000 -5.0000 -8.6603
         vertex 22.3000 -5.0000 -8.6603
      endloop
   endfacet
   facet normal 0.0000 0.3418 0.9398
      outer loop
         vertex 0.0000 -2.5882 -9.6593
         vertex 22.3000 -5.0000 -8.6603
         vertex 22.3000 -2.5882 -9.6593
      endloop
   endfacet
   facet normal 0.0000 1.0000 0.0018
      outer loop
         vertex 0.1583 -4.8781 -18.2054
         vertex 0.0627 -4.8963 -18.1021
         vertex 3.7764 -4.8963 -18.1021
      endloop
   endfacet
   facet normal 0.0000 0.9960 0.0894
      outer loop
         vertex 0.1583 -4.8781 -18.2054
         vertex 3.7764 -4.8963 -18.1021
         vertex 2.5006 -4.8781 -18.2054
      endloop
   endfacet
   facet normal 0.0000 0.9848 0.1736
      outer loop
         vertex 0.1583 -4.8781 -18.2054
         vertex 2.5006 -4.8781 -18.2054
         vertex 0.3217 -4.8506 -18.3614
      endloop
   endfacet
   facet normal 0.0000 0.0853 -0.9964
      outer loop
         vertex 0.0000 -3.0035 -15.3989
         vertex 0.0000 -1.3213 -15.1023
         vertex 11.5000 -1.3213 -15.1023
      endloop
   endfacet
   facet normal 0.0000 0.2606 -0.9655
      outer loop
         vertex 0.0000 -3.0035 -15.3989
         vertex 11.5000 -1.3213 -15.1023
         vertex 11.5000 -3.0035 -15.3989
      endloop
   endfacet
   facet normal 0.0000 0.1739 0.9848
      outer loop
         vertex 0.0000 0.0000 -10.0000
         vertex 0.0000 -2.5882 -9.6593
         vertex 22.3000 -2.5882 -9.6593
      endloop
   endfacet
   facet normal 0.0000 0.0869 0.9962
      outer loop
         vertex 0.0000 0.0000 -10.0000
         vertex 22.3000 -2.5882 -9.6593
         vertex 22.3000 -0.0000 -10.0000
      endloop
   endfacet
   facet normal 0.0000 0.7084 -0.7058
      outer loop
         vertex 11.5000 -4.3121 -16.4970
         vertex 0.0000 -4.3121 -16.4970
         vertex 0.0000 -3.0035 -15.3989
      endloop
   endfacet
   facet normal 0.0000 0.5721 -0.8202
      outer loop
         vertex 11.5000 -4.3121 -16.4970
         vertex 0.0000 -3.0035 -15.3989
         vertex 11.5000 -3.0035 -15.3989
      endloop
   endfacet
   facet normal 0.7339 -0.1181 -0.6689
      outer loop
         vertex 22.3000 -0.0000 -17.1406
         vertex 22.3000 -4.4363 -16.5566
         vertex 21.9783 -4.5256 -16.8898
      endloop
   endfacet
   facet normal 0.7339 -0.0590 -0.6766
      outer loop
         vertex 22.3000 -0.0000 -17.1406
         vertex 21.9783 -4.5256 -16.8898
         vertex 21.9783 0.0000 -17.4856
      endloop
   endfacet
   facet normal 0.0697 -0.2157 -0.9740
      outer loop
         vertex 21.9783 -4.5256 -16.8898
         vertex 11.1043 -4.7224 -17.6243
         vertex 11.5000 -4.7128 -17.5979
      endloop
   endfacet
   facet normal 0.0695 -0.1730 -0.9825
      outer loop
         vertex 21.9783 -4.5256 -16.8898
         vertex 11.5000 -4.7128 -17.5979
         vertex 12.8161 -2.4448 -17.8044
      endloop
   endfacet
   facet normal 0.0695 -0.1730 -0.9825
      outer loop
         vertex 21.9783 -4.5256 -16.8898
         vertex 12.8161 -2.4448 -17.8044
         vertex 13.0706 -1.8539 -17.8644
      endloop
   endfacet
   facet normal 0.0695 -0.1730 -0.9825
      outer loop
         vertex 21.9783 -4.5256 -16.8898
         vertex 13.0706 -1.8539 -17.8644
         vertex 13.1207 -1.5659 -17.8988
      endloop
   endfacet
   facet normal 0.0700 -0.1302 -0.9890
      outer loop
         vertex 21.9783 -4.5256 -16.8898
         vertex 13.1207 -1.5659 -17.8988
         vertex 21.9783 0.0000 -17.4856
      endloop
   endfacet
   facet normal 0.0695 -0.0872 -0.9938
      outer loop
         vertex 21.9783 0.0000 -17.4856
         vertex 13.1207 -1.5659 -17.8988
         vertex 13.0864 -1.2921 -17.9373
      endloop
   endfacet
   facet normal 0.0695 -0.0872 -0.9938
      outer loop
         vertex 21.9783 0.0000 -17.4856
         vertex 13.0864 -1.2921 -17.9373
         vertex 12.8932 -0.8051 -18.0149
      endloop
   endfacet
   facet normal 0.0697 -0.0437 -0.9966
      outer loop
         vertex 21.9783 0.0000 -17.4856
         vertex 12.8932 -0.8051 -18.0149
         vertex 12.4336 -0.0000 -18.1531
      endloop
   endfacet
   facet normal -0.8725 0.1273 -0.4717
      outer loop
         vertex 13.0706 -1.8539 -17.8644
         vertex 11.5000 -3.0035 -15.3989
         vertex 11.5000 -1.3213 -15.1023
      endloop
   endfacet
   facet normal -0.8725 0.0417 -0.4868
      outer loop
         vertex 13.0706 -1.8539 -17.8644
         vertex 11.5000 -1.3213 -15.1023
         vertex 13.1207 -1.5659 -17.8988
      endloop
   endfacet
   facet normal -0.8725 0.3461 -0.3448
      outer loop
         vertex 12.8161 -2.4448 -17.8044
         vertex 11.5000 -4.3121 -16.4970
         vertex 11.5000 -3.0035 -15.3989
      endloop
   endfacet
   facet normal -0.8725 0.2795 -0.4007
      outer loop
         vertex 12.8161 -2.4448 -17.8044
         vertex 11.5000 -3.0035 -15.3989
         vertex 13.0706 -1.8539 -17.8644
      endloop
   endfacet
   facet normal -0.8652 0.4348 -0.2500
      outer loop
         vertex 11.5000 -4.3121 -16.4970
         vertex 12.8161 -2.4448 -17.8044
         vertex 11.5000 -4.7128 -17.5979
      endloop
   endfacet
   facet normal 0.0697 -0.2157 -0.9740
      outer loop
         vertex 0.3217 -4.9176 -18.3526
         vertex 0.3217 -4.8506 -18.3614
         vertex 2.5006 -4.8781 -18.2054
      endloop
   endfacet
   facet normal -0.6816 -0.1582 -0.7144
      outer loop
         vertex 0.3217 -4.8506 -18.3614
         vertex 0.3217 -4.9176 -18.3526
         vertex 0.1583 -4.8781 -18.2054
      endloop
   endfacet
endsolid
